<svg width="1218" height="86" viewBox="0 0 1218 86" fill="none" xmlns="http://www.w3.org/2000/svg">
<path d="M10 18C10 15.7909 11.7909 14 14 14H26C28.2091 14 30 15.7909 30 18V30C30 32.2091 28.2091 34 26 34H14C11.7909 34 10 32.2091 10 30V18Z" fill="#253981"/>
<path d="M17 20.648V27.352C17 27.8632 17.5145 28.1738 17.9108 27.8956L22.725 24.5436C23.0917 24.2912 23.0917 23.7088 22.725 23.45L17.9108 20.1044C17.5145 19.8262 17 20.1368 17 20.648Z" fill="white"/>
<path d="M54 15C50.325 15 47 17.9455 47 22.501C47 25.4099 49.1438 28.831 53.4225 32.7736C53.755 33.0755 54.2538 33.0755 54.5863 32.7736C58.8563 28.831 61 25.4099 61 22.501C61 17.9455 57.675 15 54 15ZM54 24.1475C53.0375 24.1475 52.25 23.3242 52.25 22.318C52.25 21.3118 53.0375 20.4885 54 20.4885C54.9625 20.4885 55.75 21.3118 55.75 22.318C55.75 23.3242 54.9625 24.1475 54 24.1475Z" fill="#494949"/>
<path d="M90.0413 31.0393V26.236H93.9543V31.0393C93.9543 31.5677 94.3945 32 94.9326 32H97.8673C98.4054 32 98.8456 31.5677 98.8456 31.0393V24.3146H100.509C100.959 24.3146 101.174 23.767 100.831 23.4788L92.6533 16.245C92.2815 15.9183 91.7141 15.9183 91.3424 16.245L83.1642 23.4788C82.8316 23.767 83.037 24.3146 83.487 24.3146H85.1501V31.0393C85.1501 31.5677 85.5903 32 86.1283 32H89.0631C89.6011 32 90.0413 31.5677 90.0413 31.0393Z" fill="#494949"/>
<path d="M130 16C125.584 16 122 19.584 122 24C122 28.416 125.584 32 130 32C134.416 32 138 28.416 138 24C138 19.584 134.416 16 130 16ZM130 18.4C131.328 18.4 132.4 19.472 132.4 20.8C132.4 22.128 131.328 23.2 130 23.2C128.672 23.2 127.6 22.128 127.6 20.8C127.6 19.472 128.672 18.4 130 18.4ZM130 29.76C128 29.76 126.232 28.736 125.2 27.184C125.224 25.592 128.4 24.72 130 24.72C131.592 24.72 134.776 25.592 134.8 27.184C133.768 28.736 132 29.76 130 29.76Z" fill="#494949"/>
<path d="M165 30L171 24L165 18L165 30Z" fill="#494949"/>
<path d="M202 19.81V28.19C202 28.829 202.686 29.2173 203.214 28.8694L209.633 24.6795C210.122 24.364 210.122 23.636 209.633 23.3125L203.214 19.1306C202.686 18.7827 202 19.171 202 19.81Z" fill="#494949"/>
<path d="M242.178 20.2105C241.941 20.4899 241.941 20.9412 242.178 21.2206L244.535 24.0005L242.178 26.7803C241.941 27.0597 241.941 27.511 242.178 27.7904C242.415 28.0699 242.797 28.0699 243.034 27.7904L245.822 24.502C246.059 24.2225 246.059 23.7712 245.822 23.4918L243.034 20.2033C242.803 19.9311 242.415 19.9311 242.178 20.2105Z" fill="#494949"/>
<path d="M277.642 24.6557L284.81 24.6557L281.678 27.8715C281.428 28.1285 281.428 28.5502 281.678 28.8072C281.929 29.0642 282.333 29.0642 282.583 28.8072L286.812 24.4646C287.063 24.2076 287.063 23.7924 286.812 23.5354L282.583 19.1928C282.333 18.9358 281.929 18.9358 281.678 19.1928C281.428 19.4498 281.428 19.8649 281.678 20.1219L284.81 23.3377L277.642 23.3377C277.289 23.3377 277 23.6343 277 23.9967C277 24.3591 277.289 24.6557 277.642 24.6557Z" fill="#494949"/>
<path d="M323.111 23.624C322.886 23.392 322.512 23.392 322.287 23.624L318.903 27.104L317.667 25.832C317.441 25.6 317.068 25.6 316.842 25.832C316.617 26.064 316.617 26.448 316.842 26.68L318.351 28.232C318.654 28.544 319.144 28.544 319.448 28.232L323.103 24.472C323.337 24.24 323.337 23.856 323.111 23.624ZM325.444 17.6H324.667V16.8C324.667 16.36 324.317 16 323.889 16C323.461 16 323.111 16.36 323.111 16.8V17.6H316.889V16.8C316.889 16.36 316.539 16 316.111 16C315.683 16 315.333 16.36 315.333 16.8V17.6H314.556C313.692 17.6 313.008 18.32 313.008 19.2L313 30.4C313 31.28 313.692 32 314.556 32H325.444C326.3 32 327 31.28 327 30.4V19.2C327 18.32 326.3 17.6 325.444 17.6ZM324.667 30.4H315.333C314.906 30.4 314.556 30.04 314.556 29.6V21.6H325.444V29.6C325.444 30.04 325.094 30.4 324.667 30.4Z" fill="#494949"/>
<path d="M361.889 16C361.461 16 361.111 16.36 361.111 16.8V17.6H354.889V16.8C354.889 16.36 354.539 16 354.111 16C353.683 16 353.333 16.36 353.333 16.8V17.6H352.556C351.692 17.6 351.008 18.32 351.008 19.2L351 30.4C351 31.28 351.692 32 352.556 32H363.444C364.3 32 365 31.28 365 30.4V19.2C365 18.32 364.3 17.6 363.444 17.6H362.667V16.8C362.667 16.36 362.317 16 361.889 16ZM363.444 30.4H352.556V22.4H363.444V30.4ZM357.222 24.8C357.222 24.36 357.572 24 358 24C358.428 24 358.778 24.36 358.778 24.8C358.778 25.24 358.428 25.6 358 25.6C357.572 25.6 357.222 25.24 357.222 24.8ZM354.111 24.8C354.111 24.36 354.461 24 354.889 24C355.317 24 355.667 24.36 355.667 24.8C355.667 25.24 355.317 25.6 354.889 25.6C354.461 25.6 354.111 25.24 354.111 24.8ZM360.333 24.8C360.333 24.36 360.683 24 361.111 24C361.539 24 361.889 24.36 361.889 24.8C361.889 25.24 361.539 25.6 361.111 25.6C360.683 25.6 360.333 25.24 360.333 24.8ZM357.222 28C357.222 27.56 357.572 27.2 358 27.2C358.428 27.2 358.778 27.56 358.778 28C358.778 28.44 358.428 28.8 358 28.8C357.572 28.8 357.222 28.44 357.222 28ZM354.111 28C354.111 27.56 354.461 27.2 354.889 27.2C355.317 27.2 355.667 27.56 355.667 28C355.667 28.44 355.317 28.8 354.889 28.8C354.461 28.8 354.111 28.44 354.111 28ZM360.333 28C360.333 27.56 360.683 27.2 361.111 27.2C361.539 27.2 361.889 27.56 361.889 28C361.889 28.44 361.539 28.8 361.111 28.8C360.683 28.8 360.333 28.44 360.333 28Z" fill="#494949"/>
<path d="M390.429 18.9626H391.859V19.7033C391.859 20.518 392.502 21.1846 393.288 21.1846H397.577C398.363 21.1846 399.006 20.518 399.006 19.7033V18.9626H400.436V22.6659H401.865V18.9626C401.865 18.1479 401.222 17.4813 400.436 17.4813H397.448C397.148 16.6222 396.362 16 395.433 16C394.503 16 393.717 16.6222 393.417 17.4813H390.429C389.643 17.4813 389 18.1479 389 18.9626V29.3318C389 30.1465 389.643 30.8131 390.429 30.8131H394.003V29.3318H390.429V18.9626ZM395.433 17.4813C395.826 17.4813 396.147 17.8146 396.147 18.222C396.147 18.6293 395.826 18.9626 395.433 18.9626C395.04 18.9626 394.718 18.6293 394.718 18.222C394.718 17.8146 395.04 17.4813 395.433 17.4813Z" fill="#494949"/>
<path d="M402.794 30.739L401.365 29.2577C401.78 28.5097 402.044 27.6061 401.73 26.5543C401.351 25.2804 400.271 24.2953 398.985 24.1694C396.934 23.962 395.247 25.7026 395.447 27.8357C395.576 29.1614 396.519 30.2872 397.748 30.6798C398.77 31.0057 399.635 30.7316 400.357 30.302L401.787 31.7834C402.065 32.0722 402.509 32.0722 402.787 31.7834C403.066 31.4945 403.073 31.0279 402.794 30.739ZM398.649 29.3318C397.648 29.3318 396.862 28.5171 396.862 27.4802C396.862 26.4432 397.648 25.6285 398.649 25.6285C399.65 25.6285 400.436 26.4432 400.436 27.4802C400.436 28.5171 399.65 29.3318 398.649 29.3318Z" fill="#494949"/>
<path d="M426 30H442C442.55 30 443 29.55 443 29C443 28.45 442.55 28 442 28H426C425.45 28 425 28.45 425 29C425 29.55 425.45 30 426 30ZM426 25H442C442.55 25 443 24.55 443 24C443 23.45 442.55 23 442 23H426C425.45 23 425 23.45 425 24C425 24.55 425.45 25 426 25ZM425 19C425 19.55 425.45 20 426 20H442C442.55 20 443 19.55 443 19C443 18.45 442.55 18 442 18H426C425.45 18 425 18.45 425 19Z" fill="#494949"/>
<path d="M472.001 32C472.871 32 473.583 31.2615 473.583 30.359H470.419C470.419 31.2615 471.123 32 472.001 32ZM476.747 27.0769V22.9744C476.747 20.4554 475.45 18.3467 473.187 17.7887V17.2308C473.187 16.5497 472.658 16 472.001 16C471.344 16 470.814 16.5497 470.814 17.2308V17.7887C468.544 18.3467 467.255 20.4472 467.255 22.9744V27.0769L466.235 28.1354C465.736 28.6523 466.084 29.5385 466.788 29.5385H477.206C477.91 29.5385 478.266 28.6523 477.767 28.1354L476.747 27.0769Z" fill="#494949"/>
<path d="M516.171 24C516.171 23.816 516.163 23.64 516.146 23.456L517.676 22.328C518.006 22.088 518.096 21.64 517.89 21.288L516.352 18.704C516.146 18.352 515.702 18.208 515.323 18.368L513.554 19.096C513.25 18.888 512.929 18.704 512.592 18.552L512.353 16.704C512.304 16.304 511.95 16 511.539 16H508.47C508.05 16 507.696 16.304 507.647 16.704L507.408 18.552C507.071 18.704 506.75 18.888 506.446 19.096L504.677 18.368C504.298 18.208 503.854 18.352 503.648 18.704L502.11 21.296C501.904 21.648 501.994 22.088 502.324 22.336L503.854 23.464C503.837 23.64 503.829 23.816 503.829 24C503.829 24.184 503.837 24.36 503.854 24.544L502.324 25.672C501.994 25.912 501.904 26.36 502.11 26.712L503.648 29.296C503.854 29.648 504.298 29.792 504.677 29.632L506.446 28.904C506.75 29.112 507.071 29.296 507.408 29.448L507.647 31.296C507.696 31.696 508.05 32 508.461 32H511.53C511.942 32 512.296 31.696 512.345 31.296L512.583 29.448C512.921 29.296 513.242 29.112 513.546 28.904L515.315 29.632C515.694 29.792 516.138 29.648 516.344 29.296L517.882 26.712C518.088 26.36 517.997 25.92 517.668 25.672L516.138 24.544C516.163 24.36 516.171 24.184 516.171 24ZM510.033 26.8C508.445 26.8 507.153 25.544 507.153 24C507.153 22.456 508.445 21.2 510.033 21.2C511.621 21.2 512.913 22.456 512.913 24C512.913 25.544 511.621 26.8 510.033 26.8Z" fill="#494949"/>
<path d="M552.5 24C553.88 24 554.99 22.88 554.99 21.5C554.99 20.12 553.88 19 552.5 19C551.12 19 550 20.12 550 21.5C550 22.88 551.12 24 552.5 24ZM545 23C546.66 23 547.99 21.66 547.99 20C547.99 18.34 546.66 17 545 17C543.34 17 542 18.34 542 20C542 21.66 543.34 23 545 23ZM552.5 26C550.67 26 547 26.92 547 28.75V30C547 30.55 547.45 31 548 31H557C557.55 31 558 30.55 558 30V28.75C558 26.92 554.33 26 552.5 26ZM545 25C542.67 25 538 26.17 538 28.5V30C538 30.55 538.45 31 539 31H545V28.75C545 27.9 545.33 26.41 547.37 25.28C546.5 25.1 545.66 25 545 25Z" fill="#494949"/>
<path d="M586 16C581.584 16 578 19.584 578 24C578 28.416 581.584 32 586 32C590.416 32 594 28.416 594 24C594 19.584 590.416 16 586 16ZM586 28C585.56 28 585.2 27.64 585.2 27.2V24C585.2 23.56 585.56 23.2 586 23.2C586.44 23.2 586.8 23.56 586.8 24V27.2C586.8 27.64 586.44 28 586 28ZM586.8 21.6H585.2V20H586.8V21.6Z" fill="#494949"/>
<path d="M624 16C619.584 16 616 19.584 616 24C616 28.416 619.584 32 624 32C628.416 32 632 28.416 632 24C632 19.584 628.416 16 624 16ZM624 30.4C620.472 30.4 617.6 27.528 617.6 24C617.6 20.472 620.472 17.6 624 17.6C627.528 17.6 630.4 20.472 630.4 24C630.4 27.528 627.528 30.4 624 30.4ZM623.2 27.2H624.8V28.8H623.2V27.2ZM624.488 19.232C622.84 18.992 621.384 20.008 620.944 21.464C620.8 21.928 621.152 22.4 621.64 22.4H621.8C622.128 22.4 622.392 22.168 622.504 21.864C622.76 21.152 623.52 20.664 624.344 20.84C625.104 21 625.664 21.744 625.6 22.52C625.52 23.592 624.304 23.824 623.64 24.824C623.64 24.832 623.632 24.832 623.632 24.84C623.624 24.856 623.616 24.864 623.608 24.88C623.536 25 623.464 25.136 623.408 25.28C623.4 25.304 623.384 25.32 623.376 25.344C623.368 25.36 623.368 25.376 623.36 25.4C623.264 25.672 623.2 26 623.2 26.4H624.8C624.8 26.064 624.888 25.784 625.024 25.544C625.04 25.52 625.048 25.496 625.064 25.472C625.128 25.36 625.208 25.256 625.288 25.16C625.296 25.152 625.304 25.136 625.312 25.128C625.392 25.032 625.48 24.944 625.576 24.856C626.344 24.128 627.384 23.536 627.168 22.008C626.976 20.616 625.88 19.44 624.488 19.232Z" fill="#494949"/>
<path d="M656.675 20.7717H653.919C653.413 20.7717 653 20.3564 653 19.8489C653 19.3413 653.413 18.926 653.919 18.926H656.675C657.18 18.926 657.594 19.3413 657.594 19.8489C657.594 20.3564 657.18 20.7717 656.675 20.7717ZM656.675 23.5402H653.919C653.413 23.5402 653 23.9555 653 24.463C653 24.9706 653.413 25.3858 653.919 25.3858H656.675C657.18 25.3858 657.594 24.9706 657.594 24.463C657.594 23.9555 657.18 23.5402 656.675 23.5402ZM669.427 29.3448L666.56 26.4656C665.77 26.9823 664.824 27.2776 663.804 27.2223C661.627 27.1208 659.762 25.4135 659.468 23.2449C659.064 20.1534 661.719 17.5418 664.824 18.0678C666.615 18.3723 668.104 19.775 668.499 21.5561C668.802 22.9034 668.508 24.1585 667.856 25.1551L670.731 28.0436C671.09 28.4035 671.09 28.9849 670.731 29.3448C670.373 29.7047 669.785 29.7047 669.427 29.3448ZM666.781 22.6174C666.781 21.0947 665.541 19.8489 664.025 19.8489C662.509 19.8489 661.268 21.0947 661.268 22.6174C661.268 24.14 662.509 25.3858 664.025 25.3858C665.541 25.3858 666.781 24.14 666.781 22.6174ZM653.919 30H661.268C661.774 30 662.187 29.5847 662.187 29.0772C662.187 28.5696 661.774 28.1543 661.268 28.1543H653.919C653.413 28.1543 653 28.5696 653 29.0772C653 29.5847 653.413 30 653.919 30Z" fill="#494949"/>
<path d="M703.732 26.3182H702.991L702.728 26.065C703.854 24.7518 704.436 22.9603 704.117 21.0562C703.676 18.4487 701.498 16.3664 698.871 16.0475C694.901 15.5597 691.559 18.8989 692.048 22.8665C692.367 25.4928 694.45 27.6689 697.059 28.1098C698.964 28.4287 700.757 27.8471 702.071 26.7216L702.324 26.9842V27.7252L706.313 31.7116C706.698 32.0961 707.327 32.0961 707.711 31.7116C708.096 31.327 708.096 30.6986 707.711 30.314L703.732 26.3182ZM698.101 26.3182C695.764 26.3182 693.878 24.4329 693.878 22.0974C693.878 19.7618 695.764 17.8765 698.101 17.8765C700.438 17.8765 702.324 19.7618 702.324 22.0974C702.324 24.4329 700.438 26.3182 698.101 26.3182Z" fill="#494949"/>
<path d="M738 16C733.584 16 730 19.584 730 24C730 28.416 733.584 32 738 32C742.416 32 746 28.416 746 24C746 19.584 742.416 16 738 16ZM741.2 24.8H738.8V27.2C738.8 27.64 738.44 28 738 28C737.56 28 737.2 27.64 737.2 27.2V24.8H734.8C734.36 24.8 734 24.44 734 24C734 23.56 734.36 23.2 734.8 23.2H737.2V20.8C737.2 20.36 737.56 20 738 20C738.44 20 738.8 20.36 738.8 20.8V23.2H741.2C741.64 23.2 742 23.56 742 24C742 24.44 741.64 24.8 741.2 24.8Z" fill="#494949"/>
<path d="M782.222 16H769.778C768.8 16 768.009 16.8 768.009 17.7778L768 30.2222C768 31.2 768.8 32 769.778 32H782.222C783.2 32 784 31.2 784 30.2222V17.7778C784 16.8 783.2 16 782.222 16ZM780.444 25.7778H777.778V28.4444C777.778 28.9333 777.378 29.3333 776.889 29.3333H775.111C774.622 29.3333 774.222 28.9333 774.222 28.4444V25.7778H771.556C771.067 25.7778 770.667 25.3778 770.667 24.8889V23.1111C770.667 22.6222 771.067 22.2222 771.556 22.2222H774.222V19.5556C774.222 19.0667 774.622 18.6667 775.111 18.6667H776.889C777.378 18.6667 777.778 19.0667 777.778 19.5556V22.2222H780.444C780.933 22.2222 781.333 22.6222 781.333 23.1111V24.8889C781.333 25.3778 780.933 25.7778 780.444 25.7778Z" fill="#494949"/>
<path d="M811.331 27.1054L808.412 24.3221C808.086 24.0119 807.569 24.0119 807.244 24.3221C806.919 24.6322 806.919 25.1252 807.244 25.4354L810.739 28.7674C811.064 29.0775 811.59 29.0775 811.915 28.7674L820.756 20.3459C821.081 20.0358 821.081 19.5427 820.756 19.2326C820.431 18.9225 819.914 18.9225 819.588 19.2326L811.331 27.1054Z" fill="#494949"/>
<path d="M852 16C847.584 16 844 19.584 844 24C844 28.416 847.584 32 852 32C856.416 32 860 28.416 860 24C860 19.584 856.416 16 852 16ZM849.832 27.432L846.96 24.56C846.648 24.248 846.648 23.744 846.96 23.432C847.272 23.12 847.776 23.12 848.088 23.432L850.4 25.736L855.904 20.232C856.216 19.92 856.72 19.92 857.032 20.232C857.344 20.544 857.344 21.048 857.032 21.36L850.96 27.432C850.656 27.744 850.144 27.744 849.832 27.432Z" fill="#494949"/>
<path d="M896.689 17.3212C896.275 16.9071 895.606 16.9071 895.192 17.3212L890 22.5028L884.808 17.3106C884.394 16.8965 883.725 16.8965 883.311 17.3106C882.896 17.7247 882.896 18.3936 883.311 18.8077L888.503 24L883.311 29.1923C882.896 29.6064 882.896 30.2753 883.311 30.6894C883.725 31.1035 884.394 31.1035 884.808 30.6894L890 25.4972L895.192 30.6894C895.606 31.1035 896.275 31.1035 896.689 30.6894C897.104 30.2753 897.104 29.6064 896.689 29.1923L891.497 24L896.689 18.8077C897.093 18.4042 897.093 17.7247 896.689 17.3212Z" fill="#494949"/>
<path d="M931.934 21.9412H930.571V17.8235C930.571 17.3706 930.186 17 929.714 17H926.286C925.814 17 925.429 17.3706 925.429 17.8235V21.9412H924.066C923.303 21.9412 922.917 22.8306 923.457 23.3494L927.391 27.1294C927.726 27.4506 928.266 27.4506 928.6 27.1294L932.534 23.3494C933.074 22.8306 932.697 21.9412 931.934 21.9412ZM922 30.1765C922 30.6294 922.386 31 922.857 31H933.143C933.614 31 934 30.6294 934 30.1765C934 29.7235 933.614 29.3529 933.143 29.3529H922.857C922.386 29.3529 922 29.7235 922 30.1765Z" fill="#494949"/>
<path d="M962.057 22.5625H963.42V26.7812C963.42 27.2453 963.806 27.625 964.277 27.625H967.706C968.177 27.625 968.563 27.2453 968.563 26.7812V22.5625H969.926C970.689 22.5625 971.074 21.6512 970.534 21.1196L966.6 17.2468C966.266 16.9177 965.726 16.9177 965.391 17.2468L961.457 21.1196C960.917 21.6512 961.294 22.5625 962.057 22.5625ZM960 30.1562C960 30.6203 960.386 31 960.857 31H971.143C971.614 31 972 30.6203 972 30.1562C972 29.6922 971.614 29.3125 971.143 29.3125H960.857C960.386 29.3125 960 29.6922 960 30.1562Z" fill="#494949"/>
<path d="M1003.99 16C999.576 16 996 19.584 996 24C996 28.416 999.576 32 1003.99 32C1008.42 32 1012 28.416 1012 24C1012 19.584 1008.42 16 1003.99 16ZM1004 30.4C1000.46 30.4 997.6 27.536 997.6 24C997.6 20.464 1000.46 17.6 1004 17.6C1007.54 17.6 1010.4 20.464 1010.4 24C1010.4 27.536 1007.54 30.4 1004 30.4ZM1003.82 20H1003.78C1003.46 20 1003.2 20.256 1003.2 20.576V24.352C1003.2 24.632 1003.34 24.896 1003.59 25.04L1006.91 27.032C1007.18 27.192 1007.54 27.112 1007.7 26.84C1007.86 26.568 1007.78 26.208 1007.5 26.048L1004.4 24.208V20.576C1004.4 20.256 1004.14 20 1003.82 20Z" fill="#494949"/>
<path d="M1042.63 30.4887H1034.78C1034.35 30.4887 1034 30.8287 1034 31.2443C1034 31.66 1034.35 32 1034.78 32H1042.63C1043.07 32 1043.42 31.66 1043.42 31.2443C1043.42 30.8287 1043.07 30.4887 1042.63 30.4887Z" fill="white"/>
<path d="M1039.55 18.5796L1037.33 20.7181L1047.32 30.3376C1047.93 30.927 1048.93 30.927 1049.54 30.3376C1050.15 29.7482 1050.15 28.7885 1049.54 28.1991L1039.55 18.5796Z" fill="white"/>
<path d="M1046.21 18.5796L1043.99 16.4411C1043.38 15.8517 1042.38 15.8517 1041.77 16.4487L1040.66 17.5141L1045.1 21.7911L1046.21 20.7181C1046.83 20.1287 1046.83 19.169 1046.21 18.5796Z" fill="white"/>
<path d="M1040.66 26.0606L1036.22 21.7836L1035.11 22.849C1034.5 23.4385 1034.5 24.3981 1035.11 24.9875L1037.34 27.126C1037.95 27.7155 1038.94 27.7155 1039.56 27.126L1040.66 26.0606Z" fill="white"/>
<path d="M1089 20.5915C1089 20.0511 1088.59 19.6089 1088.08 19.6089H1081.65C1081.14 19.6089 1080.73 20.0511 1080.73 20.5915C1080.73 21.132 1081.14 21.5741 1081.65 21.5741H1088.08C1088.59 21.5741 1089 21.132 1089 20.5915ZM1080.73 28.4525C1080.73 28.993 1081.14 29.4352 1081.65 29.4352H1088.08C1088.59 29.4352 1089 28.993 1089 28.4525C1089 27.9121 1088.59 27.4699 1088.08 27.4699H1081.65C1081.14 27.4699 1080.73 27.9121 1080.73 28.4525ZM1078.41 17.28C1078.77 17.6633 1078.77 18.2823 1078.41 18.6656L1074.52 22.8417C1074.16 23.225 1073.58 23.225 1073.22 22.8417L1071.27 20.7487C1070.91 20.3655 1070.91 19.7464 1071.27 19.3632C1071.63 18.98 1072.21 18.98 1072.56 19.3632L1073.87 20.7586L1077.12 17.28C1077.47 16.9067 1078.06 16.9067 1078.41 17.28ZM1078.42 25.1509C1078.77 25.5341 1078.77 26.1532 1078.42 26.5364L1074.53 30.7126C1074.17 31.0958 1073.59 31.0958 1073.23 30.7126L1071.27 28.6098C1070.91 28.2265 1070.91 27.6075 1071.27 27.2242C1071.63 26.841 1072.21 26.841 1072.56 27.2242L1073.87 28.6196L1077.12 25.1411C1077.47 24.7677 1078.06 24.7677 1078.42 25.1509Z" fill="white"/>
<path d="M1122.67 17.4545H1119.88C1119.6 16.6109 1118.87 16 1118 16C1117.13 16 1116.4 16.6109 1116.12 17.4545H1113.33C1112.6 17.4545 1112 18.1091 1112 18.9091V30.5455C1112 31.3455 1112.6 32 1113.33 32H1122.67C1123.4 32 1124 31.3455 1124 30.5455V18.9091C1124 18.1091 1123.4 17.4545 1122.67 17.4545ZM1118 17.4545C1118.37 17.4545 1118.67 17.7818 1118.67 18.1818C1118.67 18.5818 1118.37 18.9091 1118 18.9091C1117.63 18.9091 1117.33 18.5818 1117.33 18.1818C1117.33 17.7818 1117.63 17.4545 1118 17.4545ZM1122 30.5455H1114C1113.63 30.5455 1113.33 30.2182 1113.33 29.8182V19.6364C1113.33 19.2364 1113.63 18.9091 1114 18.9091H1114.67V19.6364C1114.67 20.4364 1115.27 21.0909 1116 21.0909H1120C1120.73 21.0909 1121.33 20.4364 1121.33 19.6364V18.9091H1122C1122.37 18.9091 1122.67 19.2364 1122.67 19.6364V29.8182C1122.67 30.2182 1122.37 30.5455 1122 30.5455Z" fill="white"/>
<path d="M1161.6 20.5H1158.1V18.4C1158.1 17.63 1157.47 17 1156.7 17H1155.3C1154.53 17 1153.9 17.63 1153.9 18.4V20.5H1150.4C1149.63 20.5 1149 21.13 1149 21.9V29.6C1149 30.37 1149.63 31 1150.4 31H1161.6C1162.37 31 1163 30.37 1163 29.6V21.9C1163 21.13 1162.37 20.5 1161.6 20.5ZM1155.3 18.4H1156.7V21.9H1155.3V18.4ZM1152.5 26.8H1151.8C1151.41 26.8 1151.1 26.485 1151.1 26.1C1151.1 25.715 1151.41 25.4 1151.8 25.4H1152.5V24.7C1152.5 24.315 1152.81 24 1153.2 24C1153.59 24 1153.9 24.315 1153.9 24.7V25.4H1154.6C1154.99 25.4 1155.3 25.715 1155.3 26.1C1155.3 26.485 1154.99 26.8 1154.6 26.8H1153.9V27.5C1153.9 27.885 1153.59 28.2 1153.2 28.2C1152.81 28.2 1152.5 27.885 1152.5 27.5V26.8ZM1157.22 25.75C1156.94 25.75 1156.7 25.512 1156.7 25.225C1156.7 24.938 1156.94 24.7 1157.22 24.7H1160.38C1160.66 24.7 1160.9 24.938 1160.9 25.225C1160.9 25.512 1160.66 25.75 1160.38 25.75H1157.22ZM1157.22 27.85C1156.94 27.85 1156.7 27.612 1156.7 27.325C1156.7 27.038 1156.94 26.8 1157.22 26.8H1158.97C1159.26 26.8 1159.5 27.038 1159.5 27.325C1159.5 27.612 1159.26 27.85 1158.97 27.85H1157.22Z" fill="white"/>
<path d="M1197.64 23.1429C1199.15 23.1429 1200.35 21.9943 1200.35 20.5714C1200.35 19.1486 1199.15 18 1197.64 18C1196.13 18 1194.91 19.1486 1194.91 20.5714C1194.91 21.9943 1196.13 23.1429 1197.64 23.1429ZM1190.36 23.1429C1191.87 23.1429 1193.08 21.9943 1193.08 20.5714C1193.08 19.1486 1191.87 18 1190.36 18C1188.85 18 1187.64 19.1486 1187.64 20.5714C1187.64 21.9943 1188.85 23.1429 1190.36 23.1429ZM1190.36 24.8571C1188.25 24.8571 1184 25.86 1184 27.8571V29.1429C1184 29.6143 1184.41 30 1184.91 30H1195.82C1196.32 30 1196.73 29.6143 1196.73 29.1429V27.8571C1196.73 25.86 1192.48 24.8571 1190.36 24.8571ZM1197.64 24.8571C1197.37 24.8571 1197.07 24.8743 1196.75 24.9C1196.77 24.9086 1196.78 24.9257 1196.79 24.9343C1197.83 25.6457 1198.55 26.5971 1198.55 27.8571V29.1429C1198.55 29.4429 1198.48 29.7343 1198.38 30H1203.09C1203.59 30 1204 29.6143 1204 29.1429V27.8571C1204 25.86 1199.75 24.8571 1197.64 24.8571Z" fill="white"/>
<path d="M10 56C10 53.7909 11.7909 52 14 52H26C28.2091 52 30 53.7909 30 56V68C30 70.2091 28.2091 72 26 72H14C11.7909 72 10 70.2091 10 68V56Z" fill="white"/>
<path d="M17 58.648V65.352C17 65.8632 17.5145 66.1738 17.9108 65.8956L22.725 62.5436C23.0917 62.2912 23.0917 61.7088 22.725 61.45L17.9108 58.1044C17.5145 57.8262 17 58.1368 17 58.648Z" fill="#253981"/>
<path d="M54 53C50.325 53 47 55.9455 47 60.501C47 63.4099 49.1438 66.831 53.4225 70.7736C53.755 71.0755 54.2538 71.0755 54.5863 70.7736C58.8563 66.831 61 63.4099 61 60.501C61 55.9455 57.675 53 54 53ZM54 62.1475C53.0375 62.1475 52.25 61.3242 52.25 60.318C52.25 59.3118 53.0375 58.4885 54 58.4885C54.9625 58.4885 55.75 59.3118 55.75 60.318C55.75 61.3242 54.9625 62.1475 54 62.1475Z" fill="white"/>
<path d="M90.0413 69.0393V64.236H93.9543V69.0393C93.9543 69.5677 94.3945 70 94.9326 70H97.8673C98.4054 70 98.8456 69.5677 98.8456 69.0393V62.3146H100.509C100.959 62.3146 101.174 61.767 100.831 61.4788L92.6533 54.245C92.2815 53.9183 91.7141 53.9183 91.3424 54.245L83.1642 61.4788C82.8316 61.767 83.037 62.3146 83.487 62.3146H85.1501V69.0393C85.1501 69.5677 85.5903 70 86.1283 70H89.0631C89.6011 70 90.0413 69.5677 90.0413 69.0393Z" fill="white"/>
<path d="M130 54C125.584 54 122 57.584 122 62C122 66.416 125.584 70 130 70C134.416 70 138 66.416 138 62C138 57.584 134.416 54 130 54ZM130 56.4C131.328 56.4 132.4 57.472 132.4 58.8C132.4 60.128 131.328 61.2 130 61.2C128.672 61.2 127.6 60.128 127.6 58.8C127.6 57.472 128.672 56.4 130 56.4ZM130 67.76C128 67.76 126.232 66.736 125.2 65.184C125.224 63.592 128.4 62.72 130 62.72C131.592 62.72 134.776 63.592 134.8 65.184C133.768 66.736 132 67.76 130 67.76Z" fill="white"/>
<path d="M165 68L171 62L165 56L165 68Z" fill="white"/>
<path d="M202 57.81V66.19C202 66.829 202.686 67.2173 203.214 66.8694L209.633 62.6795C210.122 62.364 210.122 61.636 209.633 61.3125L203.214 57.1306C202.686 56.7827 202 57.171 202 57.81Z" fill="white"/>
<path d="M242.178 58.2105C241.941 58.4899 241.941 58.9412 242.178 59.2206L244.535 62.0005L242.178 64.7803C241.941 65.0597 241.941 65.511 242.178 65.7904C242.415 66.0699 242.797 66.0699 243.034 65.7904L245.822 62.502C246.059 62.2225 246.059 61.7712 245.822 61.4918L243.034 58.2033C242.803 57.9311 242.415 57.9311 242.178 58.2105Z" fill="white"/>
<path d="M277.642 62.6557L284.81 62.6557L281.678 65.8715C281.428 66.1285 281.428 66.5502 281.678 66.8072C281.929 67.0642 282.333 67.0642 282.583 66.8072L286.812 62.4646C287.063 62.2076 287.063 61.7924 286.812 61.5354L282.583 57.1928C282.333 56.9358 281.929 56.9358 281.678 57.1928C281.428 57.4498 281.428 57.8649 281.678 58.1219L284.81 61.3377L277.642 61.3377C277.289 61.3377 277 61.6343 277 61.9967C277 62.3591 277.289 62.6557 277.642 62.6557Z" fill="white"/>
<path d="M323.111 61.624C322.886 61.392 322.512 61.392 322.287 61.624L318.903 65.104L317.667 63.832C317.441 63.6 317.068 63.6 316.842 63.832C316.617 64.064 316.617 64.448 316.842 64.68L318.351 66.232C318.654 66.544 319.144 66.544 319.448 66.232L323.103 62.472C323.337 62.24 323.337 61.856 323.111 61.624ZM325.444 55.6H324.667V54.8C324.667 54.36 324.317 54 323.889 54C323.461 54 323.111 54.36 323.111 54.8V55.6H316.889V54.8C316.889 54.36 316.539 54 316.111 54C315.683 54 315.333 54.36 315.333 54.8V55.6H314.556C313.692 55.6 313.008 56.32 313.008 57.2L313 68.4C313 69.28 313.692 70 314.556 70H325.444C326.3 70 327 69.28 327 68.4V57.2C327 56.32 326.3 55.6 325.444 55.6ZM324.667 68.4H315.333C314.906 68.4 314.556 68.04 314.556 67.6V59.6H325.444V67.6C325.444 68.04 325.094 68.4 324.667 68.4Z" fill="white"/>
<path d="M361.889 54C361.461 54 361.111 54.36 361.111 54.8V55.6H354.889V54.8C354.889 54.36 354.539 54 354.111 54C353.683 54 353.333 54.36 353.333 54.8V55.6H352.556C351.692 55.6 351.008 56.32 351.008 57.2L351 68.4C351 69.28 351.692 70 352.556 70H363.444C364.3 70 365 69.28 365 68.4V57.2C365 56.32 364.3 55.6 363.444 55.6H362.667V54.8C362.667 54.36 362.317 54 361.889 54ZM363.444 68.4H352.556V60.4H363.444V68.4ZM357.222 62.8C357.222 62.36 357.572 62 358 62C358.428 62 358.778 62.36 358.778 62.8C358.778 63.24 358.428 63.6 358 63.6C357.572 63.6 357.222 63.24 357.222 62.8ZM354.111 62.8C354.111 62.36 354.461 62 354.889 62C355.317 62 355.667 62.36 355.667 62.8C355.667 63.24 355.317 63.6 354.889 63.6C354.461 63.6 354.111 63.24 354.111 62.8ZM360.333 62.8C360.333 62.36 360.683 62 361.111 62C361.539 62 361.889 62.36 361.889 62.8C361.889 63.24 361.539 63.6 361.111 63.6C360.683 63.6 360.333 63.24 360.333 62.8ZM357.222 66C357.222 65.56 357.572 65.2 358 65.2C358.428 65.2 358.778 65.56 358.778 66C358.778 66.44 358.428 66.8 358 66.8C357.572 66.8 357.222 66.44 357.222 66ZM354.111 66C354.111 65.56 354.461 65.2 354.889 65.2C355.317 65.2 355.667 65.56 355.667 66C355.667 66.44 355.317 66.8 354.889 66.8C354.461 66.8 354.111 66.44 354.111 66ZM360.333 66C360.333 65.56 360.683 65.2 361.111 65.2C361.539 65.2 361.889 65.56 361.889 66C361.889 66.44 361.539 66.8 361.111 66.8C360.683 66.8 360.333 66.44 360.333 66Z" fill="white"/>
<path d="M390.429 56.9626H391.859V57.7033C391.859 58.518 392.502 59.1846 393.288 59.1846H397.577C398.363 59.1846 399.006 58.518 399.006 57.7033V56.9626H400.436V60.6659H401.865V56.9626C401.865 56.1479 401.222 55.4813 400.436 55.4813H397.448C397.148 54.6222 396.362 54 395.433 54C394.503 54 393.717 54.6222 393.417 55.4813H390.429C389.643 55.4813 389 56.1479 389 56.9626V67.3318C389 68.1465 389.643 68.8131 390.429 68.8131H394.003V67.3318H390.429V56.9626ZM395.433 55.4813C395.826 55.4813 396.147 55.8146 396.147 56.222C396.147 56.6293 395.826 56.9626 395.433 56.9626C395.04 56.9626 394.718 56.6293 394.718 56.222C394.718 55.8146 395.04 55.4813 395.433 55.4813Z" fill="white"/>
<path d="M402.794 68.739L401.365 67.2577C401.78 66.5097 402.044 65.6061 401.73 64.5543C401.351 63.2804 400.271 62.2953 398.985 62.1694C396.934 61.962 395.247 63.7026 395.447 65.8357C395.576 67.1614 396.519 68.2872 397.748 68.6798C398.77 69.0057 399.635 68.7316 400.357 68.302L401.787 69.7834C402.065 70.0722 402.509 70.0722 402.787 69.7834C403.066 69.4945 403.073 69.0279 402.794 68.739ZM398.649 67.3318C397.648 67.3318 396.862 66.5171 396.862 65.4802C396.862 64.4432 397.648 63.6285 398.649 63.6285C399.65 63.6285 400.436 64.4432 400.436 65.4802C400.436 66.5171 399.65 67.3318 398.649 67.3318Z" fill="white"/>
<path d="M426 68H442C442.55 68 443 67.55 443 67C443 66.45 442.55 66 442 66H426C425.45 66 425 66.45 425 67C425 67.55 425.45 68 426 68ZM426 63H442C442.55 63 443 62.55 443 62C443 61.45 442.55 61 442 61H426C425.45 61 425 61.45 425 62C425 62.55 425.45 63 426 63ZM425 57C425 57.55 425.45 58 426 58H442C442.55 58 443 57.55 443 57C443 56.45 442.55 56 442 56H426C425.45 56 425 56.45 425 57Z" fill="white"/>
<path d="M472.001 70C472.871 70 473.583 69.2615 473.583 68.359H470.419C470.419 69.2615 471.123 70 472.001 70ZM476.747 65.0769V60.9744C476.747 58.4554 475.45 56.3467 473.187 55.7887V55.2308C473.187 54.5497 472.658 54 472.001 54C471.344 54 470.814 54.5497 470.814 55.2308V55.7887C468.544 56.3467 467.255 58.4472 467.255 60.9744V65.0769L466.235 66.1354C465.736 66.6523 466.084 67.5385 466.788 67.5385H477.206C477.91 67.5385 478.266 66.6523 477.767 66.1354L476.747 65.0769Z" fill="white"/>
<path d="M516.171 62C516.171 61.816 516.163 61.64 516.146 61.456L517.676 60.328C518.006 60.088 518.096 59.64 517.89 59.288L516.352 56.704C516.146 56.352 515.702 56.208 515.323 56.368L513.554 57.096C513.25 56.888 512.929 56.704 512.592 56.552L512.353 54.704C512.304 54.304 511.95 54 511.539 54H508.47C508.05 54 507.696 54.304 507.647 54.704L507.408 56.552C507.071 56.704 506.75 56.888 506.446 57.096L504.677 56.368C504.298 56.208 503.854 56.352 503.648 56.704L502.11 59.296C501.904 59.648 501.994 60.088 502.324 60.336L503.854 61.464C503.837 61.64 503.829 61.816 503.829 62C503.829 62.184 503.837 62.36 503.854 62.544L502.324 63.672C501.994 63.912 501.904 64.36 502.11 64.712L503.648 67.296C503.854 67.648 504.298 67.792 504.677 67.632L506.446 66.904C506.75 67.112 507.071 67.296 507.408 67.448L507.647 69.296C507.696 69.696 508.05 70 508.461 70H511.53C511.942 70 512.296 69.696 512.345 69.296L512.583 67.448C512.921 67.296 513.242 67.112 513.546 66.904L515.315 67.632C515.694 67.792 516.138 67.648 516.344 67.296L517.882 64.712C518.088 64.36 517.997 63.92 517.668 63.672L516.138 62.544C516.163 62.36 516.171 62.184 516.171 62ZM510.033 64.8C508.445 64.8 507.153 63.544 507.153 62C507.153 60.456 508.445 59.2 510.033 59.2C511.621 59.2 512.913 60.456 512.913 62C512.913 63.544 511.621 64.8 510.033 64.8Z" fill="white"/>
<path d="M552.5 62C553.88 62 554.99 60.88 554.99 59.5C554.99 58.12 553.88 57 552.5 57C551.12 57 550 58.12 550 59.5C550 60.88 551.12 62 552.5 62ZM545 61C546.66 61 547.99 59.66 547.99 58C547.99 56.34 546.66 55 545 55C543.34 55 542 56.34 542 58C542 59.66 543.34 61 545 61ZM552.5 64C550.67 64 547 64.92 547 66.75V68C547 68.55 547.45 69 548 69H557C557.55 69 558 68.55 558 68V66.75C558 64.92 554.33 64 552.5 64ZM545 63C542.67 63 538 64.17 538 66.5V68C538 68.55 538.45 69 539 69H545V66.75C545 65.9 545.33 64.41 547.37 63.28C546.5 63.1 545.66 63 545 63Z" fill="white"/>
<path d="M586 54C581.584 54 578 57.584 578 62C578 66.416 581.584 70 586 70C590.416 70 594 66.416 594 62C594 57.584 590.416 54 586 54ZM586 66C585.56 66 585.2 65.64 585.2 65.2V62C585.2 61.56 585.56 61.2 586 61.2C586.44 61.2 586.8 61.56 586.8 62V65.2C586.8 65.64 586.44 66 586 66ZM586.8 59.6H585.2V58H586.8V59.6Z" fill="white"/>
<path d="M624 54C619.584 54 616 57.584 616 62C616 66.416 619.584 70 624 70C628.416 70 632 66.416 632 62C632 57.584 628.416 54 624 54ZM624 68.4C620.472 68.4 617.6 65.528 617.6 62C617.6 58.472 620.472 55.6 624 55.6C627.528 55.6 630.4 58.472 630.4 62C630.4 65.528 627.528 68.4 624 68.4ZM623.2 65.2H624.8V66.8H623.2V65.2ZM624.488 57.232C622.84 56.992 621.384 58.008 620.944 59.464C620.8 59.928 621.152 60.4 621.64 60.4H621.8C622.128 60.4 622.392 60.168 622.504 59.864C622.76 59.152 623.52 58.664 624.344 58.84C625.104 59 625.664 59.744 625.6 60.52C625.52 61.592 624.304 61.824 623.64 62.824C623.64 62.832 623.632 62.832 623.632 62.84C623.624 62.856 623.616 62.864 623.608 62.88C623.536 63 623.464 63.136 623.408 63.28C623.4 63.304 623.384 63.32 623.376 63.344C623.368 63.36 623.368 63.376 623.36 63.4C623.264 63.672 623.2 64 623.2 64.4H624.8C624.8 64.064 624.888 63.784 625.024 63.544C625.04 63.52 625.048 63.496 625.064 63.472C625.128 63.36 625.208 63.256 625.288 63.16C625.296 63.152 625.304 63.136 625.312 63.128C625.392 63.032 625.48 62.944 625.576 62.856C626.344 62.128 627.384 61.536 627.168 60.008C626.976 58.616 625.88 57.44 624.488 57.232Z" fill="white"/>
<path d="M656.675 58.7717H653.919C653.413 58.7717 653 58.3564 653 57.8489C653 57.3413 653.413 56.926 653.919 56.926H656.675C657.18 56.926 657.594 57.3413 657.594 57.8489C657.594 58.3564 657.18 58.7717 656.675 58.7717ZM656.675 61.5402H653.919C653.413 61.5402 653 61.9555 653 62.463C653 62.9706 653.413 63.3858 653.919 63.3858H656.675C657.18 63.3858 657.594 62.9706 657.594 62.463C657.594 61.9555 657.18 61.5402 656.675 61.5402ZM669.427 67.3448L666.56 64.4656C665.77 64.9823 664.824 65.2776 663.804 65.2223C661.627 65.1208 659.762 63.4135 659.468 61.2449C659.064 58.1534 661.719 55.5418 664.824 56.0678C666.615 56.3723 668.104 57.775 668.499 59.5561C668.802 60.9034 668.508 62.1585 667.856 63.1551L670.731 66.0436C671.09 66.4035 671.09 66.9849 670.731 67.3448C670.373 67.7047 669.785 67.7047 669.427 67.3448ZM666.781 60.6174C666.781 59.0947 665.541 57.8489 664.025 57.8489C662.509 57.8489 661.268 59.0947 661.268 60.6174C661.268 62.14 662.509 63.3858 664.025 63.3858C665.541 63.3858 666.781 62.14 666.781 60.6174ZM653.919 68H661.268C661.774 68 662.187 67.5847 662.187 67.0772C662.187 66.5696 661.774 66.1543 661.268 66.1543H653.919C653.413 66.1543 653 66.5696 653 67.0772C653 67.5847 653.413 68 653.919 68Z" fill="white"/>
<path d="M703.732 64.3182H702.991L702.728 64.065C703.854 62.7518 704.436 60.9603 704.117 59.0562C703.676 56.4487 701.498 54.3664 698.871 54.0475C694.901 53.5597 691.559 56.8989 692.048 60.8665C692.367 63.4928 694.45 65.6689 697.059 66.1098C698.964 66.4287 700.757 65.8471 702.071 64.7216L702.324 64.9842V65.7252L706.313 69.7116C706.698 70.0961 707.327 70.0961 707.711 69.7116C708.096 69.327 708.096 68.6986 707.711 68.314L703.732 64.3182ZM698.101 64.3182C695.764 64.3182 693.878 62.4329 693.878 60.0974C693.878 57.7618 695.764 55.8765 698.101 55.8765C700.438 55.8765 702.324 57.7618 702.324 60.0974C702.324 62.4329 700.438 64.3182 698.101 64.3182Z" fill="white"/>
<path d="M738 54C733.584 54 730 57.584 730 62C730 66.416 733.584 70 738 70C742.416 70 746 66.416 746 62C746 57.584 742.416 54 738 54ZM741.2 62.8H738.8V65.2C738.8 65.64 738.44 66 738 66C737.56 66 737.2 65.64 737.2 65.2V62.8H734.8C734.36 62.8 734 62.44 734 62C734 61.56 734.36 61.2 734.8 61.2H737.2V58.8C737.2 58.36 737.56 58 738 58C738.44 58 738.8 58.36 738.8 58.8V61.2H741.2C741.64 61.2 742 61.56 742 62C742 62.44 741.64 62.8 741.2 62.8Z" fill="white"/>
<path d="M782.222 54H769.778C768.8 54 768.009 54.8 768.009 55.7778L768 68.2222C768 69.2 768.8 70 769.778 70H782.222C783.2 70 784 69.2 784 68.2222V55.7778C784 54.8 783.2 54 782.222 54ZM780.444 63.7778H777.778V66.4444C777.778 66.9333 777.378 67.3333 776.889 67.3333H775.111C774.622 67.3333 774.222 66.9333 774.222 66.4444V63.7778H771.556C771.067 63.7778 770.667 63.3778 770.667 62.8889V61.1111C770.667 60.6222 771.067 60.2222 771.556 60.2222H774.222V57.5556C774.222 57.0667 774.622 56.6667 775.111 56.6667H776.889C777.378 56.6667 777.778 57.0667 777.778 57.5556V60.2222H780.444C780.933 60.2222 781.333 60.6222 781.333 61.1111V62.8889C781.333 63.3778 780.933 63.7778 780.444 63.7778Z" fill="white"/>
<path d="M811.331 65.1054L808.412 62.3221C808.086 62.0119 807.569 62.0119 807.244 62.3221C806.919 62.6322 806.919 63.1252 807.244 63.4354L810.739 66.7674C811.064 67.0775 811.59 67.0775 811.915 66.7674L820.756 58.3459C821.081 58.0358 821.081 57.5427 820.756 57.2326C820.431 56.9225 819.914 56.9225 819.588 57.2326L811.331 65.1054Z" fill="white"/>
<path d="M852 54C847.584 54 844 57.584 844 62C844 66.416 847.584 70 852 70C856.416 70 860 66.416 860 62C860 57.584 856.416 54 852 54ZM849.832 65.432L846.96 62.56C846.648 62.248 846.648 61.744 846.96 61.432C847.272 61.12 847.776 61.12 848.088 61.432L850.4 63.736L855.904 58.232C856.216 57.92 856.72 57.92 857.032 58.232C857.344 58.544 857.344 59.048 857.032 59.36L850.96 65.432C850.656 65.744 850.144 65.744 849.832 65.432Z" fill="white"/>
<path d="M896.689 55.3212C896.275 54.9071 895.606 54.9071 895.192 55.3212L890 60.5028L884.808 55.3106C884.394 54.8965 883.725 54.8965 883.311 55.3106C882.896 55.7247 882.896 56.3936 883.311 56.8077L888.503 62L883.311 67.1923C882.896 67.6064 882.896 68.2753 883.311 68.6894C883.725 69.1035 884.394 69.1035 884.808 68.6894L890 63.4972L895.192 68.6894C895.606 69.1035 896.275 69.1035 896.689 68.6894C897.104 68.2753 897.104 67.6064 896.689 67.1923L891.497 62L896.689 56.8077C897.093 56.4042 897.093 55.7247 896.689 55.3212Z" fill="white"/>
<path d="M931.934 59.9412H930.571V55.8235C930.571 55.3706 930.186 55 929.714 55H926.286C925.814 55 925.429 55.3706 925.429 55.8235V59.9412H924.066C923.303 59.9412 922.917 60.8306 923.457 61.3494L927.391 65.1294C927.726 65.4506 928.266 65.4506 928.6 65.1294L932.534 61.3494C933.074 60.8306 932.697 59.9412 931.934 59.9412ZM922 68.1765C922 68.6294 922.386 69 922.857 69H933.143C933.614 69 934 68.6294 934 68.1765C934 67.7235 933.614 67.3529 933.143 67.3529H922.857C922.386 67.3529 922 67.7235 922 68.1765Z" fill="white"/>
<path d="M962.057 60.5625H963.42V64.7812C963.42 65.2453 963.806 65.625 964.277 65.625H967.706C968.177 65.625 968.563 65.2453 968.563 64.7812V60.5625H969.926C970.689 60.5625 971.074 59.6512 970.534 59.1196L966.6 55.2468C966.266 54.9177 965.726 54.9177 965.391 55.2468L961.457 59.1196C960.917 59.6512 961.294 60.5625 962.057 60.5625ZM960 68.1562C960 68.6203 960.386 69 960.857 69H971.143C971.614 69 972 68.6203 972 68.1562C972 67.6922 971.614 67.3125 971.143 67.3125H960.857C960.386 67.3125 960 67.6922 960 68.1562Z" fill="white"/>
<path d="M1003.99 54C999.576 54 996 57.584 996 62C996 66.416 999.576 70 1003.99 70C1008.42 70 1012 66.416 1012 62C1012 57.584 1008.42 54 1003.99 54ZM1004 68.4C1000.46 68.4 997.6 65.536 997.6 62C997.6 58.464 1000.46 55.6 1004 55.6C1007.54 55.6 1010.4 58.464 1010.4 62C1010.4 65.536 1007.54 68.4 1004 68.4ZM1003.82 58H1003.78C1003.46 58 1003.2 58.256 1003.2 58.576V62.352C1003.2 62.632 1003.34 62.896 1003.59 63.04L1006.91 65.032C1007.18 65.192 1007.54 65.112 1007.7 64.84C1007.86 64.568 1007.78 64.208 1007.5 64.048L1004.4 62.208V58.576C1004.4 58.256 1004.14 58 1003.82 58Z" fill="white"/>
<path d="M1042.63 68.4887H1034.78C1034.35 68.4887 1034 68.8287 1034 69.2443C1034 69.66 1034.35 70 1034.78 70H1042.63C1043.07 70 1043.42 69.66 1043.42 69.2443C1043.42 68.8287 1043.07 68.4887 1042.63 68.4887Z" fill="#253981"/>
<path d="M1039.55 56.5796L1037.33 58.7181L1047.32 68.3376C1047.93 68.927 1048.93 68.927 1049.54 68.3376C1050.15 67.7482 1050.15 66.7885 1049.54 66.1991L1039.55 56.5796Z" fill="#253981"/>
<path d="M1046.21 56.5796L1043.99 54.4411C1043.38 53.8517 1042.38 53.8517 1041.77 54.4487L1040.66 55.5141L1045.1 59.7911L1046.21 58.7181C1046.83 58.1287 1046.83 57.169 1046.21 56.5796Z" fill="#253981"/>
<path d="M1040.66 64.0606L1036.22 59.7836L1035.11 60.849C1034.5 61.4385 1034.5 62.3981 1035.11 62.9875L1037.34 65.126C1037.95 65.7155 1038.94 65.7155 1039.56 65.126L1040.66 64.0606Z" fill="#253981"/>
<path d="M1089 58.5915C1089 58.0511 1088.59 57.6089 1088.08 57.6089H1081.65C1081.14 57.6089 1080.73 58.0511 1080.73 58.5915C1080.73 59.132 1081.14 59.5741 1081.65 59.5741H1088.08C1088.59 59.5741 1089 59.132 1089 58.5915ZM1080.73 66.4525C1080.73 66.993 1081.14 67.4352 1081.65 67.4352H1088.08C1088.59 67.4352 1089 66.993 1089 66.4525C1089 65.9121 1088.59 65.4699 1088.08 65.4699H1081.65C1081.14 65.4699 1080.73 65.9121 1080.73 66.4525ZM1078.41 55.28C1078.77 55.6633 1078.77 56.2823 1078.41 56.6656L1074.52 60.8417C1074.16 61.225 1073.58 61.225 1073.22 60.8417L1071.27 58.7487C1070.91 58.3655 1070.91 57.7464 1071.27 57.3632C1071.63 56.98 1072.21 56.98 1072.56 57.3632L1073.87 58.7586L1077.12 55.28C1077.47 54.9067 1078.06 54.9067 1078.41 55.28ZM1078.42 63.1509C1078.77 63.5341 1078.77 64.1532 1078.42 64.5364L1074.53 68.7126C1074.17 69.0958 1073.59 69.0958 1073.23 68.7126L1071.27 66.6098C1070.91 66.2265 1070.91 65.6075 1071.27 65.2242C1071.63 64.841 1072.21 64.841 1072.56 65.2242L1073.87 66.6196L1077.12 63.1411C1077.47 62.7677 1078.06 62.7677 1078.42 63.1509Z" fill="#253981"/>
<path d="M1122.67 55.4545H1119.88C1119.6 54.6109 1118.87 54 1118 54C1117.13 54 1116.4 54.6109 1116.12 55.4545H1113.33C1112.6 55.4545 1112 56.1091 1112 56.9091V68.5455C1112 69.3455 1112.6 70 1113.33 70H1122.67C1123.4 70 1124 69.3455 1124 68.5455V56.9091C1124 56.1091 1123.4 55.4545 1122.67 55.4545ZM1118 55.4545C1118.37 55.4545 1118.67 55.7818 1118.67 56.1818C1118.67 56.5818 1118.37 56.9091 1118 56.9091C1117.63 56.9091 1117.33 56.5818 1117.33 56.1818C1117.33 55.7818 1117.63 55.4545 1118 55.4545ZM1122 68.5455H1114C1113.63 68.5455 1113.33 68.2182 1113.33 67.8182V57.6364C1113.33 57.2364 1113.63 56.9091 1114 56.9091H1114.67V57.6364C1114.67 58.4364 1115.27 59.0909 1116 59.0909H1120C1120.73 59.0909 1121.33 58.4364 1121.33 57.6364V56.9091H1122C1122.37 56.9091 1122.67 57.2364 1122.67 57.6364V67.8182C1122.67 68.2182 1122.37 68.5455 1122 68.5455Z" fill="#253981"/>
<path d="M1161.6 58.5H1158.1V56.4C1158.1 55.63 1157.47 55 1156.7 55H1155.3C1154.53 55 1153.9 55.63 1153.9 56.4V58.5H1150.4C1149.63 58.5 1149 59.13 1149 59.9V67.6C1149 68.37 1149.63 69 1150.4 69H1161.6C1162.37 69 1163 68.37 1163 67.6V59.9C1163 59.13 1162.37 58.5 1161.6 58.5ZM1155.3 56.4H1156.7V59.9H1155.3V56.4ZM1152.5 64.8H1151.8C1151.41 64.8 1151.1 64.485 1151.1 64.1C1151.1 63.715 1151.41 63.4 1151.8 63.4H1152.5V62.7C1152.5 62.315 1152.81 62 1153.2 62C1153.59 62 1153.9 62.315 1153.9 62.7V63.4H1154.6C1154.99 63.4 1155.3 63.715 1155.3 64.1C1155.3 64.485 1154.99 64.8 1154.6 64.8H1153.9V65.5C1153.9 65.885 1153.59 66.2 1153.2 66.2C1152.81 66.2 1152.5 65.885 1152.5 65.5V64.8ZM1157.22 63.75C1156.94 63.75 1156.7 63.512 1156.7 63.225C1156.7 62.938 1156.94 62.7 1157.22 62.7H1160.38C1160.66 62.7 1160.9 62.938 1160.9 63.225C1160.9 63.512 1160.66 63.75 1160.38 63.75H1157.22ZM1157.22 65.85C1156.94 65.85 1156.7 65.612 1156.7 65.325C1156.7 65.038 1156.94 64.8 1157.22 64.8H1158.97C1159.26 64.8 1159.5 65.038 1159.5 65.325C1159.5 65.612 1159.26 65.85 1158.97 65.85H1157.22Z" fill="#253981"/>
<path d="M1197.64 61.1429C1199.15 61.1429 1200.35 59.9943 1200.35 58.5714C1200.35 57.1486 1199.15 56 1197.64 56C1196.13 56 1194.91 57.1486 1194.91 58.5714C1194.91 59.9943 1196.13 61.1429 1197.64 61.1429ZM1190.36 61.1429C1191.87 61.1429 1193.08 59.9943 1193.08 58.5714C1193.08 57.1486 1191.87 56 1190.36 56C1188.85 56 1187.64 57.1486 1187.64 58.5714C1187.64 59.9943 1188.85 61.1429 1190.36 61.1429ZM1190.36 62.8571C1188.25 62.8571 1184 63.86 1184 65.8571V67.1429C1184 67.6143 1184.41 68 1184.91 68H1195.82C1196.32 68 1196.73 67.6143 1196.73 67.1429V65.8571C1196.73 63.86 1192.48 62.8571 1190.36 62.8571ZM1197.64 62.8571C1197.37 62.8571 1197.07 62.8743 1196.75 62.9C1196.77 62.9086 1196.78 62.9257 1196.79 62.9343C1197.83 63.6457 1198.55 64.5971 1198.55 65.8571V67.1429C1198.55 67.4429 1198.48 67.7343 1198.38 68H1203.09C1203.59 68 1204 67.6143 1204 67.1429V65.8571C1204 63.86 1199.75 62.8571 1197.64 62.8571Z" fill="#253981"/>
</svg>
