<svg width="1092" height="218" fill="none" xmlns="http://www.w3.org/2000/svg"><path d="M14 18.757a.84.84 0 00.632-.262.892.892 0 00.252-.643.875.875 0 00-.263-.642.876.876 0 00-.642-.262.84.84 0 00-.632.262.893.893 0 00-.252.642c0 .253.087.468.263.643.175.175.39.262.642.262zm.042-8.315c.436 0 .786.113 1.052.338.267.224.4.519.4.884 0 .238-.07.484-.21.736-.14.253-.351.499-.631.737-.435.379-.748.723-.937 1.032-.19.308-.291.624-.305.947a.495.495 0 00.136.4.562.562 0 00.432.168.67.67 0 00.674-.59 1.65 1.65 0 01.274-.641c.14-.204.364-.46.673-.768.449-.422.75-.787.905-1.096.154-.308.231-.652.231-1.031 0-.688-.242-1.242-.725-1.663-.484-.421-1.12-.632-1.906-.632-.52 0-.99.112-1.41.337a3.36 3.36 0 00-1.116.99.404.404 0 00-.063.379c.042.14.126.259.253.357a.528.528 0 00.473.117.75.75 0 00.474-.306c.168-.21.354-.379.558-.505.203-.127.46-.19.768-.19zM14 22a7.724 7.724 0 01-3.115-.632 8.227 8.227 0 01-2.538-1.705 7.974 7.974 0 01-1.715-2.537A7.804 7.804 0 016 14c0-1.109.21-2.151.632-3.126a7.973 7.973 0 011.715-2.537 8.226 8.226 0 012.538-1.705A7.725 7.725 0 0114 6c1.123 0 2.169.21 3.137.632.968.42 1.814.99 2.537 1.705a7.826 7.826 0 011.705 2.537c.414.975.621 2.017.621 3.126a7.913 7.913 0 01-.621 3.126 7.827 7.827 0 01-1.705 2.537 8.227 8.227 0 01-2.537 1.705A7.776 7.776 0 0114 22zm0-1.348c1.867 0 3.442-.65 4.726-1.947 1.284-1.298 1.926-2.867 1.926-4.705s-.642-3.407-1.926-4.705C17.442 7.997 15.866 7.348 14 7.348c-1.838 0-3.407.649-4.705 1.947S7.348 12.162 7.348 14s.649 3.407 1.947 4.705 2.867 1.947 4.705 1.947z" fill="#A4A4A4"/><path d="M14 56.757a.84.84 0 00.632-.262.892.892 0 00.252-.643.875.875 0 00-.263-.642.876.876 0 00-.642-.262.84.84 0 00-.632.262.893.893 0 00-.252.642c0 .253.087.468.263.643.175.175.39.262.642.262zm.042-8.315c.436 0 .786.113 1.052.338.267.224.4.519.4.884 0 .238-.07.484-.21.736-.14.253-.351.499-.631.737-.435.379-.748.722-.937 1.032-.19.308-.291.624-.305.947a.495.495 0 00.136.4.562.562 0 00.432.169.67.67 0 00.674-.59 1.65 1.65 0 01.274-.642c.14-.204.364-.46.673-.768.449-.422.75-.787.905-1.096.154-.308.231-.652.231-1.031 0-.688-.242-1.242-.725-1.663-.484-.421-1.12-.632-1.906-.632-.52 0-.99.112-1.41.337a3.36 3.36 0 00-1.116.99.404.404 0 00-.063.378c.042.14.126.26.253.358a.528.528 0 00.473.117.75.75 0 00.474-.306c.168-.21.354-.379.558-.505.203-.127.46-.19.768-.19zM14 60a7.724 7.724 0 01-3.115-.632 8.227 8.227 0 01-2.538-1.705 7.974 7.974 0 01-1.715-2.537A7.804 7.804 0 016 52c0-1.109.21-2.151.632-3.126a7.974 7.974 0 011.715-2.537 8.227 8.227 0 012.538-1.705A7.724 7.724 0 0114 44c1.123 0 2.169.21 3.137.632.968.42 1.814.99 2.537 1.705a7.827 7.827 0 011.705 2.537c.414.975.621 2.017.621 3.126a7.913 7.913 0 01-.621 3.126 7.827 7.827 0 01-1.705 2.537 8.227 8.227 0 01-2.537 1.705A7.776 7.776 0 0114 60zm0-1.348c1.867 0 3.442-.65 4.726-1.947 1.284-1.298 1.926-2.867 1.926-4.705s-.642-3.407-1.926-4.705c-1.284-1.298-2.86-1.947-4.726-1.947-1.838 0-3.407.65-4.705 1.947C7.997 48.593 7.348 50.162 7.348 52s.649 3.407 1.947 4.705 2.867 1.947 4.705 1.947zM51.1 9.5h1.8v1.8h-1.8V9.5zm0 3.6h1.8v5.4h-1.8v-5.4zM52 5c-4.968 0-9 4.032-9 9s4.032 9 9 9 9-4.032 9-9-4.032-9-9-9zm0 16.2c-3.969 0-7.2-3.231-7.2-7.2 0-3.969 3.231-7.2 7.2-7.2 3.969 0 7.2 3.231 7.2 7.2 0 3.969-3.231 7.2-7.2 7.2z" fill="#2F7AD3"/><path d="M93.79 12.178a.807.807 0 00-1.01 0L90 14.534l-2.78-2.356a.807.807 0 00-1.01 0 .542.542 0 000 .856l3.288 2.788c.28.237.73.237 1.01 0l3.289-2.788a.547.547 0 00-.007-.856z" fill="#A4A4A4"/><path d="M93.79 50.178a.807.807 0 00-1.01 0L90 52.535l-2.78-2.357a.807.807 0 00-1.01 0 .542.542 0 000 .856l3.288 2.788c.28.237.73.237 1.01 0l3.289-2.788a.547.547 0 00-.007-.856z" fill="#2F7AD3"/><path d="M93.79 88.178a.807.807 0 00-1.01 0L90 90.534l-2.78-2.356a.807.807 0 00-1.01 0 .542.542 0 000 .856l3.288 2.788c.28.237.73.237 1.01 0l3.289-2.788a.547.547 0 00-.007-.856z" fill="#253981"/><path d="M93.79 126.178a.806.806 0 00-1.01 0L90 128.535l-2.78-2.357a.806.806 0 00-1.01 0 .542.542 0 000 .856l3.288 2.788c.28.237.73.237 1.01 0l3.289-2.788a.546.546 0 00-.007-.856z" fill="#fff"/><path d="M93.79 164.178a.806.806 0 00-1.01 0L90 166.535l-2.78-2.357a.806.806 0 00-1.01 0 .542.542 0 000 .856l3.288 2.788c.28.237.73.237 1.01 0l3.289-2.788a.546.546 0 00-.007-.856z" fill="#1C1C1B"/><path d="M131.79 10.178a.808.808 0 00-1.011 0L128 12.534l-2.78-2.356a.806.806 0 00-1.01 0 .542.542 0 000 .856l3.288 2.788a.807.807 0 001.01 0l3.289-2.788a.547.547 0 00-.007-.856z" fill="#A4A4A4"/><path d="M131.79 14.178a.808.808 0 00-1.011 0L128 16.535l-2.78-2.357a.807.807 0 00-1.01 0 .542.542 0 000 .856l3.288 2.788a.807.807 0 001.01 0l3.289-2.788a.547.547 0 00-.007-.856z" fill="#A4A4A4"/><path d="M176.421 9.444c-.768-.592-2.009-.592-2.778 0l-7.644 5.892-7.645-5.892c-.768-.592-2.009-.592-2.778 0-.768.592-.768 1.55 0 2.141l9.044 6.97c.768.593 2.009.593 2.778 0l9.043-6.97c.749-.577.749-1.549-.02-2.14z" fill="#fff"/><path d="M176.421 47.444c-.768-.592-2.009-.592-2.778 0l-7.644 5.892-7.645-5.892c-.768-.592-2.009-.592-2.778 0-.768.592-.768 1.55 0 2.141l9.044 6.97c.768.593 2.009.593 2.778 0l9.043-6.97c.749-.577.749-1.549-.02-2.14z" fill="#E9E9E9"/><path d="M176.421 85.444c-.768-.592-2.009-.592-2.778 0l-7.644 5.892-7.645-5.892c-.768-.592-2.009-.592-2.778 0-.768.592-.768 1.55 0 2.141l9.044 6.97c.768.593 2.009.593 2.778 0l9.043-6.97c.749-.577.749-1.549-.02-2.14z" fill="#A4A4A4"/><path d="M192 2.268v23.464c0 1.79 2.058 2.876 3.643 1.902L214.9 15.902c1.467-.883 1.467-2.921 0-3.827L195.643.365C194.058-.607 192 .48 192 2.269z" fill="#ECF1F8"/><path d="M192 40.268v23.464c0 1.79 2.058 2.876 3.643 1.902L214.9 53.903c1.467-.884 1.467-2.922 0-3.828l-19.257-11.71c-1.585-.973-3.643.114-3.643 1.903z" fill="#253981"/><path d="M245.333 7c-.366 0-.666.315-.666.7v.7h-5.334v-.7c0-.385-.3-.7-.666-.7-.367 0-.667.315-.667.7v.7h-.667c-.74 0-1.326.63-1.326 1.4L236 19.6c0 .77.593 1.4 1.333 1.4h9.334c.733 0 1.333-.63 1.333-1.4V9.8c0-.77-.6-1.4-1.333-1.4H246v-.7c0-.385-.3-.7-.667-.7zm1.334 12.6h-9.334v-7h9.334v7zm-5.334-4.9c0-.385.3-.7.667-.7.367 0 .667.315.667.7 0 .385-.3.7-.667.7-.367 0-.667-.315-.667-.7zm-2.666 0c0-.385.3-.7.666-.7.367 0 .667.315.667.7 0 .385-.3.7-.667.7-.366 0-.666-.315-.666-.7zm5.333 0c0-.385.3-.7.667-.7.366 0 .666.315.666.7 0 .385-.3.7-.666.7-.367 0-.667-.315-.667-.7zm-2.667 2.8c0-.385.3-.7.667-.7.367 0 .667.315.667.7 0 .385-.3.7-.667.7-.367 0-.667-.315-.667-.7zm-2.666 0c0-.385.3-.7.666-.7.367 0 .667.315.667.7 0 .385-.3.7-.667.7-.366 0-.666-.315-.666-.7zm5.333 0c0-.385.3-.7.667-.7.366 0 .666.315.666.7 0 .385-.3.7-.666.7-.367 0-.667-.315-.667-.7zM279.993 7A6.997 6.997 0 00273 14c0 3.864 3.129 7 6.993 7A7.004 7.004 0 00287 14c0-3.864-3.136-7-7.007-7zM280 19.6a5.598 5.598 0 01-5.6-5.6c0-3.094 2.506-5.6 5.6-5.6s5.6 2.506 5.6 5.6-2.506 5.6-5.6 5.6zm-.154-9.1h-.042a.502.502 0 00-.504.504v3.304c0 .245.126.476.343.602l2.905 1.743c.238.14.546.07.686-.168a.497.497 0 00-.175-.693l-2.709-1.61v-3.178a.502.502 0 00-.504-.504zm41.42 5.529h-.649l-.23-.222a5.335 5.335 0 001.215-4.383c-.386-2.281-2.291-4.103-4.59-4.382a5.34 5.34 0 00-5.97 5.966c.279 2.298 2.102 4.202 4.385 4.588a5.34 5.34 0 004.385-1.215l.222.23v.649l3.49 3.488a.866.866 0 001.223-1.223l-3.481-3.497zm-4.928 0a3.69 3.69 0 01-3.695-3.694 3.69 3.69 0 013.695-3.693 3.69 3.69 0 013.696 3.693 3.69 3.69 0 01-3.696 3.694zm46.351-8.708a1.057 1.057 0 00-1.497 0L356 12.503l-5.192-5.192a1.057 1.057 0 00-1.497 0 1.056 1.056 0 000 1.497L354.503 14l-5.192 5.192a1.056 1.056 0 000 1.497 1.057 1.057 0 001.497 0L356 15.497l5.192 5.192a1.057 1.057 0 001.497 0 1.056 1.056 0 000-1.497L357.497 14l5.192-5.192a1.063 1.063 0 000-1.487z" fill="#A4A4A4"/><path d="M362.689 45.321a1.057 1.057 0 00-1.497 0L356 50.503l-5.192-5.192a1.057 1.057 0 00-1.497 0 1.056 1.056 0 000 1.497L354.503 52l-5.192 5.192a1.056 1.056 0 000 1.497 1.057 1.057 0 001.497 0L356 53.497l5.192 5.192a1.057 1.057 0 001.497 0 1.056 1.056 0 000-1.497L357.497 52l5.192-5.192a1.063 1.063 0 000-1.487z" fill="#2F7AD3"/><path d="M361.734 84.275a.906.906 0 00-1.283 0L356 88.717l-4.451-4.45a.906.906 0 10-1.283 1.282L354.717 90l-4.451 4.45a.906.906 0 101.283 1.284l4.451-4.45 4.451 4.45a.906.906 0 101.283-1.283L357.283 90l4.451-4.45a.912.912 0 000-1.275zM389.28 19.64h2.52v-5.055h4.4v5.056h2.52v-7.52L394 8.338l-4.72 3.781v7.52zm0 1.36c-.347 0-.646-.134-.9-.403a1.35 1.35 0 01-.38-.956v-7.52a1.394 1.394 0 01.52-1.085l4.72-3.781c.107-.085.227-.149.36-.19a1.301 1.301 0 01.81 0c.127.041.243.105.35.19l4.72 3.781c.16.128.286.287.38.478.093.191.14.393.14.606v7.52c0 .37-.127.688-.38.957a1.198 1.198 0 01-.9.403h-3.8v-5.056h-1.84V21h-3.8z" fill="#A4A4A4"/><path d="M432 4c-5.52 0-10 4.48-10 10s4.48 10 10 10 10-4.48 10-10-4.48-10-10-10zm0 3c1.66 0 3 1.34 3 3s-1.34 3-3 3-3-1.34-3-3 1.34-3 3-3zm0 14.2a7.2 7.2 0 01-6-3.22c.03-1.99 4-3.08 6-3.08 1.99 0 5.97 1.09 6 3.08a7.2 7.2 0 01-6 3.22z" fill="#fff"/><path d="M470.634 20.489h-7.849c-.432 0-.785.34-.785.755 0 .416.353.756.785.756h7.849c.431 0 .785-.34.785-.756 0-.415-.354-.755-.785-.755zM467.549 8.58l-2.221 2.138 9.992 9.62a1.617 1.617 0 002.221 0c.612-.59.612-1.55 0-2.139l-9.992-9.62zm6.664 0l-2.221-2.139a1.61 1.61 0 00-2.222.008l-1.106 1.065 4.434 4.277 1.115-1.073a1.474 1.474 0 000-2.138zm-5.549 7.48l-4.443-4.276-1.106 1.065a1.473 1.473 0 000 2.139l2.221 2.138c.612.59 1.609.59 2.221 0l1.107-1.065z" fill="#fff" fill-opacity=".6"/><path d="M470.634 58.489h-7.849c-.432 0-.785.34-.785.755 0 .416.353.756.785.756h7.849c.431 0 .785-.34.785-.756 0-.415-.354-.755-.785-.755zm-3.085-11.909l-2.221 2.138 9.992 9.62a1.617 1.617 0 002.221 0c.612-.59.612-1.55 0-2.139l-9.992-9.62zm6.664 0l-2.221-2.139a1.61 1.61 0 00-2.222.008l-1.106 1.065 4.434 4.277 1.115-1.073a1.474 1.474 0 000-2.138zm-5.549 7.48l-4.443-4.276-1.106 1.065a1.473 1.473 0 000 2.139l2.221 2.138c.612.59 1.609.59 2.221 0l1.107-1.065z" fill="#253981"/><path d="M470.634 96.489h-7.849c-.432 0-.785.34-.785.755 0 .416.353.756.785.756h7.849c.431 0 .785-.34.785-.756 0-.415-.354-.755-.785-.755zm-3.085-11.909l-2.221 2.138 9.992 9.62a1.617 1.617 0 002.221 0c.612-.59.612-1.55 0-2.139l-9.992-9.62zm6.664 0l-2.221-2.139a1.61 1.61 0 00-2.222.008l-1.106 1.065 4.434 4.277 1.115-1.073a1.474 1.474 0 000-2.138zm-5.549 7.48l-4.443-4.276-1.106 1.065a1.473 1.473 0 000 2.138l2.221 2.139c.612.59 1.609.59 2.221 0l1.107-1.065z" fill="#fff"/><path d="M517 10.591c0-.54-.413-.982-.919-.982h-6.431c-.505 0-.918.442-.918.982 0 .541.413.983.918.983h6.431c.506 0 .919-.442.919-.982zm-8.268 7.862c0 .54.413.982.918.982h6.431c.506 0 .919-.442.919-.982s-.413-.983-.919-.983h-6.431c-.505 0-.918.442-.918.983zM506.407 7.28a1.028 1.028 0 010 1.386l-3.886 4.176a.884.884 0 01-1.305 0l-1.947-2.093a1.026 1.026 0 010-1.386.873.873 0 011.295 0l1.305 1.396 3.252-3.479a.878.878 0 011.286 0zm.009 7.87a1.026 1.026 0 010 1.386l-3.886 4.177a.883.883 0 01-1.304 0l-1.957-2.103a1.026 1.026 0 010-1.386.873.873 0 011.295 0l1.305 1.396 3.252-3.479a.88.88 0 011.295.01z" fill="#fff" fill-opacity=".6"/><path d="M517 48.592c0-.54-.413-.983-.919-.983h-6.431c-.505 0-.918.442-.918.983 0 .54.413.982.918.982h6.431c.506 0 .919-.442.919-.982zm-8.268 7.86c0 .541.413.983.918.983h6.431c.506 0 .919-.442.919-.983 0-.54-.413-.982-.919-.982h-6.431c-.505 0-.918.442-.918.983zm-2.325-11.172a1.028 1.028 0 010 1.386l-3.886 4.176a.884.884 0 01-1.305 0l-1.947-2.093a1.026 1.026 0 010-1.386.873.873 0 011.295 0l1.305 1.396 3.252-3.479a.878.878 0 011.286 0zm.009 7.87a1.026 1.026 0 010 1.386l-3.886 4.177a.883.883 0 01-1.304 0l-1.957-2.103a1.026 1.026 0 010-1.386.873.873 0 011.295 0l1.305 1.396 3.252-3.479a.88.88 0 011.295.01z" fill="#253981"/><path d="M517 86.591c0-.54-.413-.982-.919-.982h-6.431c-.505 0-.918.442-.918.983 0 .54.413.982.918.982h6.431c.506 0 .919-.442.919-.983zm-8.268 7.862c0 .54.413.982.918.982h6.431c.506 0 .919-.442.919-.983 0-.54-.413-.982-.919-.982h-6.431c-.505 0-.918.442-.918.983zm-2.325-11.173a1.028 1.028 0 010 1.386l-3.886 4.176a.884.884 0 01-1.305 0l-1.947-2.093a1.026 1.026 0 010-1.386.873.873 0 011.295 0l1.305 1.396 3.252-3.479a.878.878 0 011.286 0zm.009 7.87a1.026 1.026 0 010 1.386l-3.886 4.177a.883.883 0 01-1.304 0l-1.957-2.103a1.026 1.026 0 010-1.386.873.873 0 011.295 0l1.305 1.396 3.252-3.479a.88.88 0 011.295.01z" fill="#fff"/><path d="M550.667 7.455h-2.787C547.6 6.61 546.867 6 546 6s-1.6.61-1.88 1.455h-2.787c-.733 0-1.333.654-1.333 1.454v11.636c0 .8.6 1.455 1.333 1.455h9.334c.733 0 1.333-.654 1.333-1.454V8.909c0-.8-.6-1.454-1.333-1.454zm-4.667 0c.367 0 .667.327.667.727 0 .4-.3.727-.667.727-.367 0-.667-.327-.667-.727 0-.4.3-.727.667-.727zm4 13.09h-8c-.367 0-.667-.327-.667-.727V9.636c0-.4.3-.727.667-.727h.667v.727c0 .8.6 1.455 1.333 1.455h4c.733 0 1.333-.655 1.333-1.455V8.91H550c.367 0 .667.327.667.727v10.182c0 .4-.3.727-.667.727z" fill="#fff" fill-opacity=".6"/><path d="M550.667 45.455h-2.787C547.6 44.61 546.867 44 546 44s-1.6.61-1.88 1.455h-2.787c-.733 0-1.333.654-1.333 1.454v11.636c0 .8.6 1.455 1.333 1.455h9.334c.733 0 1.333-.654 1.333-1.455V46.91c0-.8-.6-1.454-1.333-1.454zm-4.667 0c.367 0 .667.327.667.727 0 .4-.3.727-.667.727-.367 0-.667-.327-.667-.727 0-.4.3-.727.667-.727zm4 13.09h-8c-.367 0-.667-.327-.667-.727V47.636c0-.4.3-.727.667-.727h.667v.727c0 .8.6 1.455 1.333 1.455h4c.733 0 1.333-.655 1.333-1.455v-.727H550c.367 0 .667.327.667.727v10.182c0 .4-.3.727-.667.727z" fill="#253981"/><path d="M550.667 83.454h-2.787C547.6 82.611 546.867 82 546 82s-1.6.61-1.88 1.454h-2.787c-.733 0-1.333.655-1.333 1.455v11.636c0 .8.6 1.455 1.333 1.455h9.334c.733 0 1.333-.654 1.333-1.454V84.909c0-.8-.6-1.455-1.333-1.455zm-4.667 0c.367 0 .667.328.667.728 0 .4-.3.727-.667.727-.367 0-.667-.327-.667-.727 0-.4.3-.728.667-.728zm4 13.092h-8c-.367 0-.667-.328-.667-.728V85.636c0-.4.3-.727.667-.727h.667v.727c0 .8.6 1.455 1.333 1.455h4c.733 0 1.333-.655 1.333-1.455v-.727H550c.367 0 .667.327.667.727v10.182c0 .4-.3.728-.667.728z" fill="#fff"/><path d="M589.6 10.5h-3.5V8.4c0-.77-.63-1.4-1.4-1.4h-1.4c-.77 0-1.4.63-1.4 1.4v2.1h-3.5c-.77 0-1.4.63-1.4 1.4v7.7c0 .77.63 1.4 1.4 1.4h11.2c.77 0 1.4-.63 1.4-1.4v-7.7c0-.77-.63-1.4-1.4-1.4zm-6.3-2.1h1.4v3.5h-1.4V8.4zm-2.8 8.4h-.7a.702.702 0 01-.7-.7c0-.385.315-.7.7-.7h.7v-.7c0-.385.315-.7.7-.7.385 0 .7.315.7.7v.7h.7c.385 0 .7.315.7.7 0 .385-.315.7-.7.7h-.7v.7c0 .385-.315.7-.7.7a.702.702 0 01-.7-.7v-.7zm4.725-1.05a.529.529 0 01-.525-.525c0-.287.238-.525.525-.525h3.15c.287 0 .525.238.525.525a.529.529 0 01-.525.525h-3.15zm0 2.1a.529.529 0 01-.525-.525c0-.287.238-.525.525-.525h1.75c.287 0 .525.238.525.525a.529.529 0 01-.525.525h-1.75z" fill="#fff" fill-opacity=".6"/><path d="M589.6 48.5h-3.5v-2.1c0-.77-.63-1.4-1.4-1.4h-1.4c-.77 0-1.4.63-1.4 1.4v2.1h-3.5c-.77 0-1.4.63-1.4 1.4v7.7c0 .77.63 1.4 1.4 1.4h11.2c.77 0 1.4-.63 1.4-1.4v-7.7c0-.77-.63-1.4-1.4-1.4zm-6.3-2.1h1.4v3.5h-1.4v-3.5zm-2.8 8.4h-.7a.702.702 0 01-.7-.7c0-.385.315-.7.7-.7h.7v-.7c0-.385.315-.7.7-.7.385 0 .7.315.7.7v.7h.7c.385 0 .7.315.7.7 0 .385-.315.7-.7.7h-.7v.7c0 .385-.315.7-.7.7a.702.702 0 01-.7-.7v-.7zm4.725-1.05a.529.529 0 01-.525-.525c0-.287.238-.525.525-.525h3.15c.287 0 .525.238.525.525a.529.529 0 01-.525.525h-3.15zm0 2.1a.529.529 0 01-.525-.525c0-.287.238-.525.525-.525h1.75c.287 0 .525.238.525.525a.529.529 0 01-.525.525h-1.75z" fill="#253981"/><path d="M589.6 86.5h-3.5v-2.1c0-.77-.63-1.4-1.4-1.4h-1.4c-.77 0-1.4.63-1.4 1.4v2.1h-3.5c-.77 0-1.4.63-1.4 1.4v7.7c0 .77.63 1.4 1.4 1.4h11.2c.77 0 1.4-.63 1.4-1.4v-7.7c0-.77-.63-1.4-1.4-1.4zm-6.3-2.1h1.4v3.5h-1.4v-3.5zm-2.8 8.4h-.7a.702.702 0 01-.7-.7c0-.385.315-.7.7-.7h.7v-.7c0-.385.315-.7.7-.7.385 0 .7.315.7.7v.7h.7c.385 0 .7.315.7.7 0 .385-.315.7-.7.7h-.7v.7c0 .385-.315.7-.7.7a.702.702 0 01-.7-.7v-.7zm4.725-1.05a.529.529 0 01-.525-.525c0-.287.238-.525.525-.525h3.15c.287 0 .525.238.525.525a.529.529 0 01-.525.525h-3.15zm0 2.1a.529.529 0 01-.525-.525c0-.287.238-.525.525-.525h1.75c.287 0 .525.238.525.525a.529.529 0 01-.525.525h-1.75z" fill="#fff"/><path d="M625.636 13.143c1.509 0 2.719-1.149 2.719-2.572 0-1.422-1.21-2.571-2.719-2.571s-2.727 1.149-2.727 2.571c0 1.423 1.218 2.572 2.727 2.572zm-7.272 0c1.509 0 2.718-1.149 2.718-2.572 0-1.422-1.209-2.571-2.718-2.571s-2.728 1.149-2.728 2.571c0 1.423 1.219 2.572 2.728 2.572zm0 1.714c-2.119 0-6.364 1.003-6.364 3v1.286c0 .471.409.857.909.857h10.909c.5 0 .909-.386.909-.857v-1.286c0-1.997-4.245-3-6.363-3zm7.272 0c-.263 0-.563.017-.881.043.018.009.027.026.036.034 1.036.712 1.754 1.663 1.754 2.923v1.286c0 .3-.063.591-.163.857h4.709c.5 0 .909-.386.909-.857v-1.286c0-1.997-4.245-3-6.364-3z" fill="#fff" fill-opacity=".6"/><path d="M625.636 51.143c1.509 0 2.719-1.149 2.719-2.572 0-1.422-1.21-2.571-2.719-2.571s-2.727 1.149-2.727 2.571c0 1.423 1.218 2.572 2.727 2.572zm-7.272 0c1.509 0 2.718-1.149 2.718-2.572 0-1.422-1.209-2.571-2.718-2.571s-2.728 1.149-2.728 2.571c0 1.423 1.219 2.572 2.728 2.572zm0 1.714c-2.119 0-6.364 1.003-6.364 3v1.286c0 .471.409.857.909.857h10.909c.5 0 .909-.386.909-.857v-1.286c0-1.997-4.245-3-6.363-3zm7.272 0c-.263 0-.563.017-.881.043.018.009.027.026.036.034 1.036.712 1.754 1.663 1.754 2.923v1.286c0 .3-.063.591-.163.857h4.709c.5 0 .909-.386.909-.857v-1.286c0-1.997-4.245-3-6.364-3z" fill="#253981"/><path d="M625.636 89.143c1.509 0 2.719-1.149 2.719-2.572 0-1.422-1.21-2.571-2.719-2.571s-2.727 1.149-2.727 2.571c0 1.423 1.218 2.572 2.727 2.572zm-7.272 0c1.509 0 2.718-1.149 2.718-2.572 0-1.422-1.209-2.571-2.718-2.571s-2.728 1.149-2.728 2.571c0 1.423 1.219 2.572 2.728 2.572zm0 1.714c-2.119 0-6.364 1.003-6.364 3v1.286c0 .471.409.857.909.857h10.909c.5 0 .909-.386.909-.857v-1.286c0-1.997-4.245-3-6.363-3zm7.272 0c-.263 0-.563.017-.881.043.018.009.027.026.036.034 1.036.712 1.754 1.663 1.754 2.923v1.286c0 .3-.063.591-.163.857h4.709c.5 0 .909-.386.909-.857v-1.286c0-1.997-4.245-3-6.364-3z" fill="#fff"/><path d="M660 6c-4.416 0-8 3.584-8 8s3.584 8 8 8 8-3.584 8-8-3.584-8-8-8zm3.2 8.8h-2.4v2.4c0 .44-.36.8-.8.8-.44 0-.8-.36-.8-.8v-2.4h-2.4c-.44 0-.8-.36-.8-.8 0-.44.36-.8.8-.8h2.4v-2.4c0-.44.36-.8.8-.8.44 0 .8.36.8.8v2.4h2.4c.44 0 .8.36.8.8 0 .44-.36.8-.8.8z" fill="#253981"/><path d="M695.999 20.45l-2.381-2.406a1.007 1.007 0 01-.25-.647c-.011-.25.092-.476.309-.677a.813.813 0 011.264 0l1.853 1.834 4.236-4.329a.92.92 0 01.676-.3c.255 0 .471.11.647.33.196.2.29.43.279.692a.956.956 0 01-.279.66l-4.765 4.842c-.216.22-.48.33-.794.33a1.07 1.07 0 01-.795-.33zm-5.764 5.05a2.13 2.13 0 01-1.588-.662c-.431-.441-.647-.982-.647-1.624V7.461c0-.641.216-1.183.647-1.623.431-.442.96-.663 1.588-.663h1.412V3.493c0-.26.093-.491.279-.691a.875.875 0 01.662-.302c.274 0 .504.1.691.302.186.2.279.43.279.69v1.683h8.913V3.463c0-.241.098-.461.294-.661.196-.201.411-.302.647-.302.255 0 .475.1.662.302.186.2.279.42.279.66v1.713h1.412c.628 0 1.157.221 1.588.663.431.44.647.982.647 1.623v15.753c0 .642-.216 1.183-.647 1.624-.431.441-.96.662-1.588.662h-15.53zm0-1.925h15.53a.337.337 0 00.25-.105.348.348 0 00.103-.256V12.091h-16.236v11.123a.35.35 0 00.103.256c.069.07.152.105.25.105zm-.353-13.408h16.236V7.461a.347.347 0 00-.103-.255.337.337 0 00-.25-.105h-15.53a.337.337 0 00-.25.105.347.347 0 00-.103.255v2.706zm38.16-3.723h2.042v1.11c0 1.223.919 2.223 2.042 2.223h6.127c1.123 0 2.042-1 2.042-2.222V6.444h2.042v5.555h2.042V6.444c0-1.222-.919-2.222-2.042-2.222h-4.268C737.64 2.933 736.517 2 735.19 2c-1.328 0-2.451.933-2.88 2.222h-4.268c-1.123 0-2.042 1-2.042 2.222v15.554c0 1.222.919 2.222 2.042 2.222h5.105v-2.222h-5.105V6.444zm7.148-2.222c.561 0 1.021.5 1.021 1.11 0 .612-.46 1.112-1.021 1.112-.562 0-1.022-.5-1.022-1.111s.46-1.111 1.022-1.111z" fill="#2F7AD3"/><path d="M745.706 24.109l-2.042-2.222c.592-1.122.97-2.478.521-4.056-.541-1.91-2.083-3.388-3.921-3.577-2.93-.31-5.34 2.3-5.054 5.5.184 1.988 1.532 3.677 3.288 4.266 1.46.489 2.695.077 3.727-.567l2.042 2.222a.948.948 0 001.429 0c.398-.433.409-1.133.01-1.566zm-5.922-2.111c-1.429 0-2.552-1.222-2.552-2.778 0-1.555 1.123-2.777 2.552-2.777 1.43 0 2.553 1.222 2.553 2.777 0 1.556-1.123 2.778-2.553 2.778z" fill="#2F7AD3"/><path d="M760 4a4 4 0 014-4h20a4 4 0 014 4v20a4 4 0 01-4 4h-20a4 4 0 01-4-4V4z" fill="#253981"/><path d="M771.5 10.648v6.704c0 .511.429.822.759.544l4.012-3.352c.305-.253.305-.835 0-1.094l-4.012-3.346c-.33-.278-.759.033-.759.544z" fill="#fff"/><path d="M812 8c-2.625 0-5 1.964-5 5 0 1.94 1.531 4.22 4.588 6.85a.647.647 0 00.831 0C815.469 17.22 817 14.94 817 13c0-3.036-2.375-5-5-5zm0 6.098c-.688 0-1.25-.549-1.25-1.22 0-.67.562-1.219 1.25-1.219s1.25.549 1.25 1.22c0 .67-.562 1.22-1.25 1.22zm36.92 6.467l-1.38-1.246a54.407 54.407 0 01-3.83-3.807c-1.14-1.258-1.71-2.646-1.71-4.162 0-1.239.42-2.274 1.26-3.104.84-.83 1.887-1.246 3.14-1.246a4.62 4.62 0 012 .445A4.76 4.76 0 01850 8.66a4.76 4.76 0 011.6-1.216 4.62 4.62 0 012-.445c1.253 0 2.3.415 3.14 1.246.84.83 1.26 1.865 1.26 3.104 0 1.516-.567 2.907-1.7 4.173a47.563 47.563 0 01-3.86 3.816l-1.36 1.226c-.307.29-.667.435-1.08.435-.413 0-.773-.145-1.08-.435zm.32-10.322c-.387-.54-.8-.953-1.24-1.236-.44-.284-.973-.425-1.6-.425-.8 0-1.467.264-2 .79-.533.528-.8 1.187-.8 1.978 0 .686.247 1.414.74 2.185a15.07 15.07 0 001.77 2.245 30.597 30.597 0 002.12 2.036A138.87 138.87 0 01850 19.38c.453-.41 1.043-.93 1.77-1.563a30.597 30.597 0 002.12-2.036 15.07 15.07 0 001.77-2.245c.493-.771.74-1.5.74-2.185 0-.79-.267-1.45-.8-1.977-.533-.527-1.2-.791-2-.791-.627 0-1.16.141-1.6.425-.44.283-.853.695-1.24 1.236a.906.906 0 01-.76.395.906.906 0 01-.76-.396z" fill="#2F7AD3"/><path d="M848.92 58.565l-1.38-1.246a54.407 54.407 0 01-3.83-3.807c-1.14-1.258-1.71-2.646-1.71-4.162 0-1.239.42-2.274 1.26-3.104.84-.83 1.887-1.246 3.14-1.246.707 0 1.373.148 2 .444a4.76 4.76 0 011.6 1.217 4.76 4.76 0 011.6-1.217 4.621 4.621 0 012-.444c1.253 0 2.3.415 3.14 1.246.84.83 1.26 1.865 1.26 3.104 0 1.516-.567 2.907-1.7 4.173a47.563 47.563 0 01-3.86 3.816l-1.36 1.226c-.307.29-.667.435-1.08.435-.413 0-.773-.145-1.08-.435zm.32-10.322c-.387-.54-.8-.953-1.24-1.236-.44-.283-.973-.425-1.6-.425-.8 0-1.467.264-2 .79-.533.528-.8 1.187-.8 1.978 0 .686.247 1.414.74 2.185a15.07 15.07 0 001.77 2.245 30.597 30.597 0 002.12 2.036A138.87 138.87 0 01850 57.38c.453-.41 1.043-.93 1.77-1.563a30.597 30.597 0 002.12-2.036 15.07 15.07 0 001.77-2.245c.493-.771.74-1.5.74-2.185 0-.79-.267-1.45-.8-1.977-.533-.527-1.2-.791-2-.791-.627 0-1.16.142-1.6.425-.44.283-.853.695-1.24 1.236a.906.906 0 01-.76.395.906.906 0 01-.76-.395z" fill="#FF6859"/><path d="M884.706 18.737h4.118c.178 0 .326-.06.443-.179a.624.624 0 00.174-.453.633.633 0 00-.174-.442.578.578 0 00-.443-.19h-4.118a.573.573 0 00-.442.19.63.63 0 00-.176.442.62.62 0 00.176.453.59.59 0 00.442.179zm0-3.263h6.588c.179 0 .326-.06.443-.18a.618.618 0 00.175-.452.62.62 0 00-.175-.453.594.594 0 00-.443-.178h-6.588a.59.59 0 00-.442.178.621.621 0 00-.176.453c0 .183.059.333.176.452.116.12.263.18.442.18zm0-3.264h6.588a.577.577 0 00.443-.189.63.63 0 00.175-.442.618.618 0 00-.175-.452.593.593 0 00-.443-.18h-6.588a.59.59 0 00-.442.18.619.619 0 00-.176.452.63.63 0 00.176.442c.116.126.263.19.442.19zm-2.224 8.527h11.036c.055 0 .109-.028.164-.084.055-.056.083-.113.083-.169V9.2c0-.056-.028-.112-.083-.168-.055-.057-.109-.085-.164-.085h-11.036c-.055 0-.109.028-.164.085-.055.056-.083.112-.083.168v11.284c0 .056.028.112.083.169.055.056.109.084.164.084zm0 1.263c-.411 0-.761-.147-1.05-.442a1.48 1.48 0 01-.432-1.074V9.2c0-.421.144-.779.432-1.074a1.416 1.416 0 011.05-.442h3.665c.055-.463.258-.86.608-1.19.35-.33.765-.494 1.245-.494.494 0 .913.165 1.256.494.343.33.542.727.597 1.19h3.665c.411 0 .761.148 1.05.442.288.295.432.653.432 1.074v11.284c0 .421-.144.78-.432 1.074a1.416 1.416 0 01-1.05.442h-11.036zM888 8.4c.178 0 .326-.06.443-.18a.622.622 0 00.175-.452.625.625 0 00-.175-.453.596.596 0 00-.443-.178.592.592 0 00-.442.178.622.622 0 00-.176.453.62.62 0 00.176.453.59.59 0 00.442.179z" fill="#2F7AD3"/><path d="M930.236 9.764a5.973 5.973 0 00-4.865-1.732c-2.756.278-5.023 2.512-5.331 5.264A5.99 5.99 0 00925.994 20a5.991 5.991 0 005.413-3.42.751.751 0 00-.676-1.08.73.73 0 00-.66.398 4.503 4.503 0 01-5.106 2.482 4.463 4.463 0 01-3.363-3.39 4.502 4.502 0 014.392-5.488c1.246 0 2.357.517 3.168 1.335l-1.134 1.132c-.473.472-.142 1.282.526 1.282h2.695a.753.753 0 00.751-.75V9.81c0-.667-.811-1.004-1.284-.532l-.48.487z" fill="#A4A4A4"/><path d="M960.95 17.726l-3.337-3.34a.936.936 0 00-1.334 0 .94.94 0 000 1.337l3.994 3.998a.949.949 0 001.344 0l10.104-10.106a.94.94 0 000-1.336.936.936 0 00-1.334 0l-9.437 9.447z" fill="#253981"/><path d="M1007.73 8.275a.902.902 0 00-1.28 0l-4.45 4.442-4.451-4.45a.906.906 0 10-1.283 1.283l4.454 4.45-4.454 4.45a.906.906 0 101.283 1.284l4.451-4.45 4.45 4.45c.36.355.93.355 1.28 0a.897.897 0 000-1.284l-4.45-4.45 4.45-4.45a.904.904 0 000-1.275z" fill="#FF6859"/><path d="M1043.93 11.941h-1.36V7.824c0-.453-.38-.824-.86-.824h-3.42c-.48 0-.86.37-.86.824v4.117h-1.36c-.77 0-1.15.89-.61 1.408l3.93 3.78a.88.88 0 001.21 0l3.93-3.78c.54-.518.17-1.408-.6-1.408zm-9.93 8.236c0 .452.39.823.86.823h10.28c.47 0 .86-.37.86-.823 0-.453-.39-.824-.86-.824h-10.28c-.47 0-.86.37-.86.823zM1078 10c-2.5 0-4.63 1.659-5.5 4 .87 2.341 3 4 5.5 4s4.64-1.659 5.5-4c-.86-2.341-3-4-5.5-4zm0 6.667c-1.38 0-2.5-1.195-2.5-2.667 0-1.472 1.12-2.667 2.5-2.667s2.5 1.195 2.5 2.667c0 1.472-1.12 2.667-2.5 2.667zm0-4.267c-.83 0-1.5.715-1.5 1.6 0 .885.67 1.6 1.5 1.6s1.5-.715 1.5-1.6c0-.885-.67-1.6-1.5-1.6z" fill="#A4A4A4"/></svg>