<svg width="108" height="23" fill="none" xmlns="http://www.w3.org/2000/svg"><g opacity=".5" fill="#A4A4A4"><path d="M11.733 16.237a.881.881 0 000-1.263L8.198 11.5l3.535-3.474a.881.881 0 000-1.263.919.919 0 00-1.284 0l-4.182 4.11a.881.881 0 000 1.263l4.182 4.11a.926.926 0 001.284-.008z"/><path d="M17.733 16.237a.881.881 0 000-1.263L14.198 11.5l3.535-3.474a.881.881 0 000-1.263.919.919 0 00-1.284 0l-4.183 4.11a.881.881 0 000 1.263l4.183 4.11a.926.926 0 001.284-.008z"/></g><path opacity=".5" d="M42.733 16.237a.881.881 0 000-1.263L39.198 11.5l3.535-3.474a.881.881 0 000-1.263.919.919 0 00-1.284 0l-4.182 4.11a.881.881 0 000 1.263l4.182 4.11a.927.927 0 001.285-.008zm22.533-9.474a.881.881 0 000 1.263l3.536 3.475-3.536 3.474a.881.881 0 000 1.263c.356.35.93.35 1.285 0l4.183-4.11a.881.881 0 000-1.263l-4.183-4.11a.927.927 0 00-1.285.008z" fill="#A4A4A4"/><g opacity=".5" fill="#A4A4A4"><path d="M96.266 6.763a.881.881 0 000 1.263l3.536 3.475-3.536 3.474a.881.881 0 000 1.263c.356.35.93.35 1.285 0l4.182-4.11a.88.88 0 000-1.263l-4.182-4.11a.927.927 0 00-1.285.008z"/><path d="M90.266 6.763a.881.881 0 000 1.263l3.536 3.475-3.536 3.474a.881.881 0 000 1.263c.356.35.93.35 1.285 0l4.183-4.11a.881.881 0 000-1.263l-4.183-4.11a.927.927 0 00-1.285.008z"/></g></svg>