<svg width="102" height="18" fill="none" xmlns="http://www.w3.org/2000/svg"><rect x=".5" y=".5" width="17" height="17" rx="3.5" fill="#fff"/><rect x=".5" y=".5" width="17" height="17" rx="3.5" stroke="#D2D2D1"/><rect x="28.5" y=".5" width="17" height="17" rx="3.5" fill="#E9E9E9"/><rect x="28.5" y=".5" width="17" height="17" rx="3.5" stroke="#D2D2D1"/><rect x="56.5" y=".5" width="17" height="17" rx="3.5" fill="#253981"/><path d="M62.712 11.795L60.21 9.29a.703.703 0 00-1 0 .705.705 0 000 1.002l2.995 2.999a.712.712 0 001.008 0l7.578-7.58a.705.705 0 000-1.002.703.703 0 00-1.001 0l-7.078 7.086z" fill="#fff"/><rect x="56.5" y=".5" width="17" height="17" rx="3.5" stroke="#D2D2D1"/><rect x="84.5" y=".5" width="17" height="17" rx="3.5" fill="#D2D2D1"/><path d="M89.95 12.726l-3.337-3.34a.937.937 0 00-1.334 0 .94.94 0 000 1.337l3.994 3.998a.949.949 0 001.344 0L100.72 4.615a.94.94 0 000-1.336.937.937 0 00-1.334 0l-9.437 9.447z" fill="#fff"/><rect x="84.5" y=".5" width="17" height="17" rx="3.5" stroke="#D2D2D1"/></svg>