<svg width="618" height="48" fill="none" xmlns="http://www.w3.org/2000/svg"><path d="M24 15c-4.968 0-9 4.032-9 9s4.032 9 9 9 9-4.032 9-9-4.032-9-9-9zm-2.439 12.861L18.33 24.63a.896.896 0 111.269-1.269l2.601 2.592 6.192-6.192a.896.896 0 111.269 1.269l-6.831 6.831a.896.896 0 01-1.269 0z" fill="#2F7AD3"/><path d="M62 15c-4.968 0-9 4.032-9 9s4.032 9 9 9 9-4.032 9-9-4.032-9-9-9zm-2.439 12.861L56.33 24.63a.896.896 0 111.269-1.269l2.601 2.592 6.192-6.192a.896.896 0 111.269 1.269l-6.831 6.831a.896.896 0 01-1.269 0z" fill="#FF6859"/><path d="M100 15c-4.968 0-9 4.032-9 9s4.032 9 9 9 9-4.032 9-9-4.032-9-9-9zm-2.439 12.861L94.33 24.63a.896.896 0 111.269-1.269l2.601 2.592 6.192-6.192a.896.896 0 111.269 1.269l-6.831 6.831a.896.896 0 01-1.269 0z" fill="#D2D2D1"/><path d="M138 15c-4.968 0-9 4.032-9 9s4.032 9 9 9 9-4.032 9-9-4.032-9-9-9zm-2.439 12.861l-3.231-3.231a.896.896 0 111.269-1.269l2.601 2.592 6.192-6.192a.896.896 0 111.269 1.269l-6.831 6.831a.896.896 0 01-1.269 0z" fill="#253981"/><path d="M178.733 20.532l-3.535 3.473 3.535 3.472a.879.879 0 010 1.261.918.918 0 01-1.284 0l-4.182-4.107a.879.879 0 010-1.262l4.182-4.107a.918.918 0 011.284 0 .897.897 0 010 1.27zm32.534 6.936l3.535-3.473-3.535-3.472a.879.879 0 010-1.261.918.918 0 011.284 0l4.182 4.107a.879.879 0 010 1.262l-4.182 4.107a.918.918 0 01-1.284 0 .897.897 0 010-1.27z" fill="#2F7AD3"/><path d="M254.733 20.532l-3.535 3.473 3.535 3.472a.879.879 0 010 1.261.918.918 0 01-1.284 0l-4.182-4.107a.879.879 0 010-1.262l4.182-4.107a.918.918 0 011.284 0 .897.897 0 010 1.27zm32.534 6.936l3.535-3.473-3.535-3.472a.879.879 0 010-1.261.918.918 0 011.284 0l4.182 4.107a.879.879 0 010 1.262l-4.182 4.107a.918.918 0 01-1.284 0 .897.897 0 010-1.27zM331.889 16a.791.791 0 00-.778.8v.8h-6.222v-.8c0-.44-.35-.8-.778-.8a.791.791 0 00-.778.8v.8h-.777c-.864 0-1.548.72-1.548 1.6L321 30.4c0 .88.692 1.6 1.556 1.6h10.888c.856 0 1.556-.72 1.556-1.6V19.2c0-.88-.7-1.6-1.556-1.6h-.777v-.8c0-.44-.35-.8-.778-.8zm1.555 14.4h-10.888v-8h10.888v8zm-6.222-5.6c0-.44.35-.8.778-.8.428 0 .778.36.778.8 0 .44-.35.8-.778.8a.791.791 0 01-.778-.8zm-3.111 0c0-.44.35-.8.778-.8.428 0 .778.36.778.8 0 .44-.35.8-.778.8a.791.791 0 01-.778-.8zm6.222 0c0-.44.35-.8.778-.8.428 0 .778.36.778.8 0 .44-.35.8-.778.8a.791.791 0 01-.778-.8zm-3.111 3.2c0-.44.35-.8.778-.8.428 0 .778.36.778.8 0 .44-.35.8-.778.8a.791.791 0 01-.778-.8zm-3.111 0c0-.44.35-.8.778-.8.428 0 .778.36.778.8 0 .44-.35.8-.778.8a.791.791 0 01-.778-.8zm6.222 0c0-.44.35-.8.778-.8.428 0 .778.36.778.8 0 .44-.35.8-.778.8a.791.791 0 01-.778-.8zm35.659-12c-4.416 0-7.992 3.584-7.992 8s3.576 8 7.992 8c4.424 0 8.008-3.584 8.008-8s-3.584-8-8.008-8zM366 30.4a6.398 6.398 0 01-6.4-6.4c0-3.536 2.864-6.4 6.4-6.4 3.536 0 6.4 2.864 6.4 6.4 0 3.536-2.864 6.4-6.4 6.4zm-.176-10.4h-.048a.574.574 0 00-.576.576v3.776c0 .28.144.544.392.688l3.32 1.992a.57.57 0 00.784-.192.568.568 0 00-.2-.792l-3.096-1.84v-3.632a.574.574 0 00-.576-.576zm41.908 6.318h-.741l-.263-.253a6.096 6.096 0 001.389-5.009c-.441-2.607-2.619-4.69-5.246-5.009a6.103 6.103 0 00-6.823 6.82c.319 2.626 2.402 4.802 5.011 5.243a6.104 6.104 0 005.012-1.388l.253.262v.741l3.989 3.987a.991.991 0 001.398 0 .99.99 0 000-1.398l-3.979-3.996zm-5.631 0a4.216 4.216 0 01-4.223-4.22 4.216 4.216 0 014.223-4.221 4.216 4.216 0 014.223 4.22 4.216 4.216 0 01-4.223 4.221zm45.633-8.043a.906.906 0 00-1.283 0L442 22.717l-4.451-4.45a.906.906 0 10-1.283 1.282L440.717 24l-4.451 4.45a.906.906 0 101.283 1.284l4.451-4.45 4.451 4.45a.906.906 0 101.283-1.284L443.283 24l4.451-4.45a.912.912 0 000-1.275z" fill="#A4A4A4"/><path d="M480 18c-3.312 0-6 2.688-6 6s2.688 6 6 6 6-2.688 6-6-2.688-6-6-6zm0 10.8a4.806 4.806 0 01-4.8-4.8c0-2.646 2.154-4.8 4.8-4.8s4.8 2.154 4.8 4.8-2.154 4.8-4.8 4.8zm-.6-2.4h1.2v1.2h-1.2v-1.2zm.966-5.976a2.401 2.401 0 00-2.658 1.674.544.544 0 00.522.702h.12c.246 0 .444-.174.528-.402.192-.534.762-.9 1.38-.768.57.12.99.678.942 1.26-.06.804-.972.978-1.47 1.728 0 .006-.006.006-.006.012-.006.012-.012.018-.018.03-.054.09-.108.192-.15.3-.006.018-.018.03-.024.048-.006.012-.006.024-.012.042a2.23 2.23 0 00-.12.75h1.2c0-.252.066-.462.168-.642.012-.018.018-.036.03-.054.048-.084.108-.162.168-.234.006-.006.012-.018.018-.024.06-.072.126-.138.198-.204.576-.546 1.356-.99 1.194-2.136-.144-1.044-.966-1.926-2.01-2.082z" fill="#2F7AD3"/><path d="M514 19.81v8.38c0 .639.686 1.027 1.214.68l6.419-4.19a.82.82 0 000-1.367l-6.419-4.182c-.528-.348-1.214.04-1.214.679z" fill="#253981"/><path d="M560.236 19.764a5.973 5.973 0 00-4.865-1.732c-2.756.278-5.023 2.512-5.331 5.264A5.99 5.99 0 00555.994 30a5.991 5.991 0 005.413-3.42.751.751 0 00-.676-1.08.73.73 0 00-.66.398 4.503 4.503 0 01-5.106 2.482 4.463 4.463 0 01-3.363-3.39 4.502 4.502 0 014.392-5.488c1.246 0 2.357.517 3.168 1.335l-1.134 1.132c-.473.472-.142 1.282.526 1.282h2.695a.753.753 0 00.751-.75V19.81c0-.667-.811-1.005-1.284-.532l-.48.487zM594 16c-4.416 0-8 3.584-8 8s3.584 8 8 8 8-3.584 8-8-3.584-8-8-8zm3.2 8.8h-2.4v2.4c0 .44-.36.8-.8.8-.44 0-.8-.36-.8-.8v-2.4h-2.4c-.44 0-.8-.36-.8-.8 0-.44.36-.8.8-.8h2.4v-2.4c0-.44.36-.8.8-.8.44 0 .8.36.8.8v2.4h2.4c.44 0 .8.36.8.8 0 .44-.36.8-.8.8z" fill="#A4A4A4"/></svg>