<svg width="20" height="25" fill="none" xmlns="http://www.w3.org/2000/svg"><path d="M2.042 4.944h2.042v1.11c0 1.223.92 2.223 2.042 2.223h6.127c1.123 0 2.042-1 2.042-2.222V4.944h2.042v5.555h2.042V4.944c0-1.222-.919-2.222-2.042-2.222h-4.268C11.64 1.433 10.517.5 9.189.5c-1.327 0-2.45.933-2.879 2.222H2.042C.92 2.722 0 3.722 0 4.944v15.554c0 1.222.919 2.222 2.042 2.222h5.105v-2.222H2.042V4.944zM9.19 2.722c.561 0 1.02.5 1.02 1.11 0 .612-.459 1.112-1.02 1.112-.562 0-1.022-.5-1.022-1.111s.46-1.111 1.022-1.111z" fill="#2F7AD3"/><path d="M19.706 22.609l-2.042-2.222c.592-1.122.97-2.478.521-4.056-.541-1.91-2.083-3.388-3.92-3.577-2.931-.31-5.341 2.3-5.055 5.5.184 1.988 1.531 3.677 3.288 4.266 1.46.489 2.695.077 3.727-.567l2.042 2.222a.948.948 0 001.43 0c.397-.433.408-1.133.01-1.566zm-5.922-2.111c-1.43 0-2.552-1.222-2.552-2.778 0-1.555 1.123-2.777 2.552-2.777 1.43 0 2.553 1.222 2.553 2.777 0 1.556-1.123 2.778-2.553 2.778z" fill="#2F7AD3"/></svg>