<svg width="20" height="23" fill="none" xmlns="http://www.w3.org/2000/svg"><path d="M14.444 10.983a.844.844 0 00-1.177 0l-4.834 4.785-1.766-1.749a.844.844 0 00-1.178 0 .824.824 0 000 1.166l2.155 2.134a1.114 1.114 0 001.567 0l5.222-5.17a.814.814 0 00.011-1.166zM17.778 2.7h-1.111V1.6c0-.605-.5-1.1-1.111-1.1-.612 0-1.112.495-1.112 1.1v1.1H5.556V1.6c0-.605-.5-1.1-1.112-1.1-.61 0-1.11.495-1.11 1.1v1.1H2.221A2.2 2.2 0 00.012 4.9L0 20.3c0 1.21.989 2.2 2.222 2.2h15.556C19 22.5 20 21.51 20 20.3V4.9c0-1.21-1-2.2-2.222-2.2zm-1.111 17.6H3.333a1.109 1.109 0 01-1.11-1.1v-11h15.555v11c0 .605-.5 1.1-1.111 1.1z" fill="#2F7AD3"/></svg>