<svg width="22" height="23" fill="none" xmlns="http://www.w3.org/2000/svg"><path d="M14.111 11.124a.575.575 0 00-.824 0l-3.384 3.48-1.236-1.272a.575.575 0 00-.825 0 .616.616 0 000 .848l1.51 1.552a.76.76 0 001.096 0l3.655-3.76a.608.608 0 00.008-.848zM16.444 5.1h-.777v-.8c0-.44-.35-.8-.778-.8a.791.791 0 00-.778.8v.8H7.89v-.8c0-.44-.35-.8-.778-.8a.791.791 0 00-.778.8v.8h-.777c-.864 0-1.548.72-1.548 1.6L4 17.9c0 .88.692 1.6 1.556 1.6h10.888c.856 0 1.556-.72 1.556-1.6V6.7c0-.88-.7-1.6-1.556-1.6zm-.777 12.8H6.333a.791.791 0 01-.777-.8v-8h10.888v8c0 .44-.35.8-.777.8z" fill="#A4A4A4"/></svg>