<svg width="218" height="29" fill="none" xmlns="http://www.w3.org/2000/svg"><g clip-path="url(#clip0_740_127414)"><path d="M14 5.76c-4.968 0-9 4.032-9 9s4.032 9 9 9 9-4.032 9-9-4.032-9-9-9zm-2.439 12.86L8.33 15.39a.896.896 0 111.269-1.27l2.601 2.593 6.192-6.192a.896.896 0 111.269 1.269l-6.831 6.83a.896.896 0 01-1.269 0z" fill="#D2D2D1"/><path d="M52 5.76c-4.968 0-9 4.032-9 9s4.032 9 9 9 9-4.032 9-9-4.032-9-9-9zm-2.439 12.86l-3.231-3.23a.896.896 0 111.269-1.27l2.601 2.593 6.192-6.192a.896.896 0 111.269 1.269l-6.831 6.83a.896.896 0 01-1.269 0z" fill="#fff"/><path d="M90 5.76c-4.968 0-9 4.032-9 9s4.032 9 9 9 9-4.032 9-9-4.032-9-9-9zm-2.439 12.86l-3.231-3.23a.896.896 0 111.269-1.27l2.601 2.593 6.192-6.192a.896.896 0 111.269 1.269l-6.831 6.83a.896.896 0 01-1.269 0z" fill="#253981"/><path d="M128 7.76c-3.864 0-7 3.136-7 7s3.136 7 7 7 7-3.136 7-7-3.136-7-7-7zm-1.897 10.003l-2.513-2.513a.697.697 0 11.987-.987l2.023 2.016 4.816-4.816a.697.697 0 11.987.987l-5.313 5.313a.697.697 0 01-.987 0z" fill="#2F7AD3"/><path d="M166 7.76c-3.864 0-7 3.136-7 7s3.136 7 7 7 7-3.136 7-7-3.136-7-7-7zm-1.897 10.003l-2.513-2.513a.697.697 0 11.987-.987l2.023 2.016 4.816-4.816a.697.697 0 11.987.987l-5.313 5.313a.697.697 0 01-.987 0z" fill="#FF6859"/><path d="M204 .76c-7.728 0-14 6.272-14 14s6.272 14 14 14 14-6.272 14-14-6.272-14-14-14zm-3.794 20.006l-5.026-5.026a1.394 1.394 0 010-1.974 1.394 1.394 0 011.974 0l4.046 4.032 9.632-9.632a1.394 1.394 0 011.974 0 1.394 1.394 0 010 1.974L202.18 20.766a1.394 1.394 0 01-1.974 0z" fill="#fff"/></g><defs><clipPath id="clip0_740_127414"><rect y=".76" width="218" height="28" rx="5" fill="#fff"/></clipPath></defs></svg>