<svg width="28" height="142" fill="none" xmlns="http://www.w3.org/2000/svg"><path d="M18.556 24.421c.592-.768.592-2.01 0-2.778L12.664 14l5.892-7.645c.592-.768.592-2.01 0-2.778-.592-.768-1.55-.768-2.141 0l-6.97 9.044c-.593.768-.593 2.01 0 2.778l6.97 9.043c.577.749 1.549.749 2.14-.02zM9.444 41.579c-.592.768-.592 2.01 0 2.778L15.336 52l-5.892 7.645c-.592.768-.592 2.01 0 2.778.592.768 1.55.768 2.141 0l6.97-9.044c.593-.768.593-2.01 0-2.778l-6.97-9.043c-.577-.749-1.549-.749-2.14.02z" fill="#A4A4A4"/><path d="M18.556 100.421c.592-.768.592-2.01 0-2.778L12.664 90l5.892-7.645c.592-.768.592-2.01 0-2.778-.592-.768-1.55-.768-2.141 0l-6.97 9.044c-.593.768-.593 2.01 0 2.778l6.97 9.043c.577.749 1.549.749 2.14-.02zm-9.112 17.158c-.592.768-.592 2.009 0 2.778l5.892 7.644-5.892 7.645c-.592.768-.592 2.009 0 2.778.592.768 1.55.768 2.141 0l6.97-9.044c.593-.768.593-2.009 0-2.778l-6.97-9.043c-.577-.749-1.549-.749-2.14.02z" fill="#64709C"/></svg>