<svg width="104" height="28" fill="none" xmlns="http://www.w3.org/2000/svg"><path d="M15.822 17.79a.807.807 0 000-1.01L13.466 14l2.356-2.78a.807.807 0 000-1.01.542.542 0 00-.856 0l-2.788 3.288a.807.807 0 000 1.01l2.788 3.289c.23.272.62.272.856-.008z" fill="#253981" opacity=".2"/><path d="M53.822 17.79a.807.807 0 000-1.01L51.465 14l2.357-2.78a.807.807 0 000-1.01.542.542 0 00-.856 0l-2.788 3.288a.807.807 0 000 1.01l2.788 3.289c.23.272.62.272.856-.008z" fill="#253981"/><path d="M88.178 10.21a.807.807 0 000 1.01L90.534 14l-2.356 2.78a.807.807 0 000 1.01c.237.28.62.28.856 0l2.788-3.288a.807.807 0 000-1.01l-2.788-3.289a.547.547 0 00-.856.008z" fill="#fff"/></svg>